Mono16accents.sfdir
StartChar: dollar
Encoding: 36 36 59
Width: 1152
VWidth: 0
Flags: W
HStem: -13.2171 120.296<244.023 512 640 778.885> 1299.83 121.18<397.94 512 640 858.822> 1516 20G<512 640>
VStem: 152 128<886.447 1184.87> 512 128<-128 -9.46925 107.079 634.751 773.175 1299.49 1414.55 1536> 912 128<230.466 515.503>
LayerCount: 5
Back
Fore
SplineSet
512 1536 m 1
 640 1536 l 1
 640 1419.9660538 l 1
 751.638925049 1408.27754317 887.566177755 1373.29270325 994 1343 c 1
 994 1218 l 1
 887.916313695 1249.00907754 750.535220319 1286.67717785 640 1299.48738275 c 1
 640 754.837067205 l 1
 854.373231493 726.826504782 1040 611.623435874 1040 375 c 0
 1040 203.634169267 914.604393806 10.3460297588 640 -13.5378229885 c 1
 640 -128 l 1
 512 -128 l 1
 512 -13.2171080851 l 1
 388.163855922 -4.01935945337 245.132014109 26.39031096 128 54 c 1
 128 178 l 1
 243.992218548 149.627802657 389.231172777 117.077500217 512 107.07915654 c 1
 512 651.544637706 l 1
 314.933495623 682.298880956 152 810.44109208 152 1036 c 0
 152 1208.76116522 269.32897295 1395.32573902 512 1421.0085523 c 1
 512 1536 l 1
512 1299.82839476 m 1
 358.996499985 1276.92365951 280 1162.84538531 280 1036 c 0
 280 882.997027968 381.920328764 799.559588795 512 773.175168114 c 1
 512 1299.82839476 l 1
640 107.048740442 m 1
 830.443566114 127.859041527 912 251.845625018 912 375 c 0
 912 537.292093661 784.636346381 612.419406719 640 634.750666807 c 1
 640 107.048740442 l 1
EndSplineSet
Layer: 2
Layer: 3
Layer: 4
EndChar
StartChar: quotesingle
Encoding: 39 39 62
Width: 1024
VWidth: 0
Flags: W
HStem: 1024 640<512 640>
VStem: 512 128<1024 1664>
LayerCount: 5
Back
Fore
SplineSet
512 1664 m 5
 640 1664 l 1
 640 1024 l 5
 512 1024 l 5
 512 1664 l 5
EndSplineSet
Layer: 2
Layer: 3
Layer: 4
EndChar
StartChar: parenleft
Encoding: 40 40 63
Width: 1152
VWidth: 0
Flags: W
VStem: 368 128<363.874 1042.64>
LayerCount: 5
Back
SplineSet
808 1818 m 0
 492.214405904 1540.44151824 303.716529987 1123.42736814 304 703 c 0
 304.283020518 283.239298424 492.715143281 -132.881639345 808 -410 c 1024
  Spiro
    808 1818 {
    304 703 o
    808 -410 o
    0 0 z
  EndSpiro
EndSplineSet
Fore
SplineSet
868 -256 m 5
 705 -256 l 5
 491 15 368 358 368 703 c 4
 368 1049 490 1392 705 1664 c 5
 868 1664 l 5
 633 1404 496 1054 496 703 c 4
 496 352 634 3 868 -256 c 5
EndSplineSet
Layer: 2
Layer: 3
Layer: 4
EndChar
StartChar: two
Encoding: 50 50 72
Width: 1024
VWidth: 0
Flags: W
HStem: 0 120<418 896> 1304 120<298.974 711.557>
VStem: 780 128<953.153 1231.65>
LayerCount: 5
Back
SplineSet
210.047851562 1235.43554688 m 5
 173.952148438 1350.56542969 l 5
 230.986328125 1366.28125 288.634765625 1381.20605469 347.07421875 1394.34472656 c 4
 414.94921875 1409.60644531 485.416015625 1424 564.053710938 1424 c 5
 608.954101562 1423.9296875 656.147460938 1418.40234375 702.3515625 1401.96972656 c 4
 748.883789062 1385.41992188 791.942382812 1358.12109375 825.7421875 1320.88378906 c 4
 855.203125 1288.42480469 875.9375 1250.60742188 889.100585938 1211.32421875 c 4
 902.036132812 1172.72265625 908.000976562 1132.63769531 908.000976562 1092.953125 c 4
 908.000976562 1058.2421875 903.245117188 1023.35449219 892.702148438 989.342773438 c 4
 882.071289062 955.055664062 866.397460938 925.553710938 851.728515625 899.223632812 c 4
 417.62890625 120 l 5
 896 120 l 5
 896 0 l 5
 312 0 l 5
 255.271484375 87.7763671875 l 5
 738.271484375 954.776367188 l 4
 751.887695312 979.217773438 763.208007812 1001.61132812 769.788085938 1022.8359375 c 4
 776.657226562 1044.9921875 780.000976562 1068.4921875 780.000976562 1092.953125 c 4
 780.000976562 1121.328125 775.672851562 1149.43261719 766.985351562 1175.36035156 c 4
 758.322265625 1201.2109375 744.96484375 1224.7109375 728.2578125 1243.11621094 c 4
 709.350585938 1263.94726562 684.303710938 1280.04296875 656.94921875 1289.77246094 c 4
 629.264648438 1299.61914062 597.467773438 1303.94824219 563.946289062 1304 c 5
 503.16796875 1304 442.393554688 1292.37402344 376.92578125 1277.65429688 c 4
 321.30078125 1265.14746094 265.724609375 1250.77734375 210.047851562 1235.43554688 c 5
  Spiro
    210.048 1235.44 v
    173.952 1350.57 v
    231.14 1365.97 o
    288.95 1380.66 o
    347.074 1394.34 o
    415.95 1408.8 o
    488.007 1419.71 o
    564.054 1424 v
    609.551 1421.91 o
    655.986 1414.96 o
    702.352 1401.97 o
    747.468 1381.89 o
    789.11 1354.75 o
    825.742 1320.88 o
    852.313 1286.82 o
    873.389 1249.94 o
    889.101 1211.32 o
    899.741 1172.34 o
    905.98 1132.66 o
    908.001 1092.95 o
    906.381 1058.26 o
    901.347 1023.57 o
    892.702 989.343 o
    880.628 956.622 o
    866.494 926.642 o
    851.729 899.224 ]
    417.629 120 v
    896 120 v
    896 0 v
    312 0 v
    255.271 87.7764 v
    738.271 954.776 [
    751.02 978.545 o
    761.728 1001.21 o
    769.788 1022.84 o
    775.484 1045.4 o
    778.882 1068.85 o
    780.001 1092.95 o
    778.56 1121.14 o
    774.215 1148.8 o
    766.985 1175.36 o
    756.819 1200.3 o
    743.784 1223.14 o
    728.258 1243.12 o
    707.469 1262.29 o
    683.367 1278 o
    656.949 1289.77 o
    628.012 1297.82 o
    596.772 1302.48 o
    563.946 1304 v
    503.057 1300.45 o
    440.94 1291.02 o
    376.926 1277.65 o
    321.367 1264.57 o
    265.641 1250.41 o
    0 0 z
  EndSpiro
EndSplineSet
Fore
SplineSet
256 1373 m 5
 359 1400 473 1424 564 1424 c 4
 806 1424 908 1259 908 1093 c 4
 908 1006 880 949 852 899 c 6
 418 120 l 5
 896 120 l 5
 896 0 l 5
 256 0 l 5
 256 89 l 5
 738 955 l 6
 762 998 780 1033 780 1093 c 4
 780 1188 735 1304 564 1304 c 4
 469 1304 353 1275 256 1248 c 5
 256 1373 l 5
EndSplineSet
Layer: 2
SplineSet
576 1364 m 4
 733.868164062 1364 844 1254.12988281 844 1096 c 4
 844 937.870076497 733.868164062 828 576 828 c 4
 418.131795247 828 308 937.870076497 308 1096 c 4
 308 1254.12988281 418.131795247 1364 576 1364 c 4
EndSplineSet
Layer: 3
SplineSet
192 1293 m 4
 248.355904097 1308.52974632 304.967301076 1323.17688803 362 1336 c 4
 428.18775421 1350.88151533 495.3409582 1364.00064682 563.175452299 1364.00064682 c 4
 564 1364 l 4
 603.210791242 1363.93844802 642.706382424 1359.01018897 679.650250993 1345.87091526 c 4
 716.594119563 1332.73164155 750.646621617 1311.0342795 777 1282 c 4
 800.08411194 1256.56756593 817.130103031 1225.90940022 828.042690246 1193.34254027 c 4
 838.854362991 1161.07684332 844.001344804 1126.98301712 844.001344804 1092.95287789 c 4
 844.001344804 1063.36742011 839.951057919 1034.17348812 831.244726667 1006.08964992 c 4
 822.640059437 978.333747312 809.142161828 952.385619678 795 927 c 6
 312 60 l 5
 896 60 l 1029
  Spiro
    192 1293 {
    362 1336 o
    564 1364 o
    777 1282 o
    844 1092 o
    795 927 [
    312 60 v
    896 60 v
    0 0 z
  EndSpiro
EndSplineSet
Layer: 4
EndChar
StartChar: A
Encoding: 65 65 29
Width: 1024
VWidth: 0
Flags: W
HStem: 0 21G<103 244.3 907.7 1049> 388 120<330 821> 1043 109<541.317 610.56>
VStem: 103 135<0 263.706> 914 135<0 263.706>
AnchorPoint: "bottom" 960 0 basechar 0
AnchorPoint: "top" 576 1152 basechar 0
LayerCount: 5
Back
Fore
SplineSet
821 508 m 1
 767.338352135 708.025608195 688.840143691 886.815620999 581 1043 c 5
 571 1043 l 5
 462.710522377 886.815620999 383.885238065 708.025608195 330 508 c 1
 821 508 l 1
103 0 m 1
 156.467312349 405.818181818 267.232445521 794.454545455 511 1152 c 1
 641 1152 l 1
 884.888619855 794.454545455 995.653753027 405.818181818 1049 0 c 1
 914 0 l 1
 901.4 136 883.874545455 265 851 388 c 1
 301 388 l 1
 268.125454545 265 250.6 136 238 0 c 1
 103 0 l 1
EndSplineSet
Layer: 2
SplineSet
103 0 m 5
 146.618164062 496.375 239.295384615 970.75 516 1408 c 5
 636 1408 l 5
 895.95502073 970.75 983.021243195 496.375 1024 0 c 5
 896 0 l 5
 890.448542299 135.987453877 883.304825439 265.390454403 873.6796875 388 c 5
 278.3203125 388 l 5
 260.933079904 265.390521143 248.028380611 135.987526619 238 0 c 5
 103 0 l 5
852.986328125 508 m 5
 794.402492925 799.734083994 709.126679303 1060.64463619 581 1289 c 5
 571 1289 l 5
 442.873287558 1060.6449168 357.597483205 799.734410973 299.013671875 508 c 5
 852.986328125 508 l 5
EndSplineSet
Layer: 3
Layer: 4
EndChar
StartChar: D
Encoding: 68 68 32
Width: 1152
VWidth: 0
Flags: HW
HStem: 0 120<256 697.496> 1288 120<256 696.764>
VStem: 128 128<120 1288> 912 128<352.628 1040.49>
AnchorPoint: "top" 576 1280 basechar 0
LayerCount: 5
Back
Fore
SplineSet
504 120 m 1
 665 120 764 189 829 278 c 4
 896.644786872 370.621323563 912 487.892018779 912 640 c 4
 912 713.899280576 902.976073758 784.074743808 886 854 c 4
 844 1027 725 1160 504 1160 c 4
 395 1160 353 1160 256 1160 c 5
 256 120 l 1
 504 120 l 1
504 1280 m 5
 608 1280 716 1250 807 1189 c 4
 910 1119 977 1009 1011 880 c 4
 1032.83688812 797.148277418 1040 718.157894737 1040 640 c 4
 1040 561.842105263 1032.15784493 482.707939255 1011 400 c 4
 978 271 908 163 807 91 c 0
 718 27 609 0 504 0 c 0
 384 0 275 0 128 0 c 1
 128 1280 l 5
 504 1280 l 5
EndSplineSet
Layer: 2
Layer: 3
Layer: 4
EndChar
StartChar: E
Encoding: 69 69 33
Width: 1024
VWidth: 0
Flags: W
HStem: 0 120<384 1024> 516 120<384 896> 1032 120<384 1024>
VStem: 256 128<120 516 636 1032>
CounterMasks: 1 e0
AnchorPoint: "bottom" 960 0 basechar 0
AnchorPoint: "top" 576 1152 basechar 0
LayerCount: 5
Back
Fore
SplineSet
256 1152 m 5
 1024 1152 l 5
 1024 1032 l 5
 384 1032 l 5
 384 636 l 5
 896 636 l 5
 896 516 l 5
 384 516 l 5
 384 120 l 1
 1024 120 l 1
 1024 0 l 1
 256 0 l 1
 256 1152 l 5
EndSplineSet
Layer: 2
SplineSet
256 1408 m 5
 1024 1408 l 5
 1024 1288 l 5
 384 1288 l 5
 384 764 l 5
 896 764 l 5
 896 644 l 5
 384 644 l 5
 384 120 l 5
 1024 120 l 5
 1024 0 l 5
 256 0 l 5
 256 1408 l 5
EndSplineSet
Layer: 3
Layer: 4
EndChar
StartChar: G
Encoding: 71 71 35
Width: 1152
VWidth: 0
Flags: HW
HStem: -16 120<446.704 892.628> 520 120<640 896> 1176 120<446.669 927.707>
VStem: 112 128<342.773 937.204> 896 128<130.443 520>
AnchorPoint: "bottom" 704 0 basechar 0
AnchorPoint: "top" 576 1280 basechar 0
LayerCount: 5
Back
SplineSet
643 1424 m 4
 765.651707429 1424 884.952236124 1394.67718608 994 1366.70527418 c 5
 994 1242.71900976 l 5
 880.542495955 1271.95940944 755.025860491 1304 643 1304 c 4
 430 1304 312.309419947 1187.92054939 268 1016 c 4
 243 919 240 813.350482315 240 704 c 4
 240 594.649414062 243.1745791 489.044827153 268 392 c 4
 312 220 430 104 643 104 c 4
 723.524278831 104 811.037241413 120.400617627 896 140.349059888 c 5
 896 648 l 5
 640 648 l 5
 640 768 l 5
 1024 768 l 5
 1024 49 l 5
 907 19 777 -16 643 -16 c 4
 542.661132812 -16 436.330382085 6.51015014331 347 64 c 4
 246 129 175.339592524 236.87194663 143 364 c 4
 114 478 112 594 112 704 c 4
 112 814 113.552151487 930.114863929 143 1044 c 4
 175.83902439 1171 246.37354134 1278.42320672 347 1344 c 4
 436 1402 542.661016949 1424 643 1424 c 4
EndSplineSet
Fore
SplineSet
643 1296 m 0
 765.651707429 1296 884.952236124 1266.67708574 994 1238.70507812 c 1
 994 1114.71875 l 1
 880.542495955 1143.95927363 755.025860491 1176 643 1176 c 0
 430 1176 312.309419947 1059.92054939 268 888 c 0
 247.770776487 809.510612773 240 726.919614148 240 640 c 0
 240 553.080303485 247.916937228 470.50651811 268 392 c 0
 312 220 430 104 643 104 c 0
 723.524278831 104 811.037241413 120.400617627 896 140.349059888 c 1
 896 520 l 1
 640 520 l 1
 640 640 l 1
 1024 640 l 1
 1024 49 l 1
 907 19 777 -16 643 -16 c 0
 542.661132812 -16 436.330382085 6.51015014331 347 64 c 0
 246 129 175.339592524 236.87194663 143 364 c 0
 119.09144049 457.985371866 112 550.705882353 112 640 c 0
 112 729.294117647 118.710700069 822.064776631 143 916 c 0
 175.83902439 1043 246.37354134 1150.42320672 347 1216 c 0
 436 1274 542.661016949 1296 643 1296 c 0
EndSplineSet
Layer: 2
Layer: 3
Layer: 4
EndChar
StartChar: J
Encoding: 74 74 38
Width: 1152
VWidth: 0
Flags: W
HStem: -16 120<229.971 669.587> 1160 120<256 768>
VStem: 768 128<210.579 1160>
AnchorPoint: "top" 576 1280 basechar 0
LayerCount: 5
Back
Fore
SplineSet
896 512 m 2
 896 391 894.007451204 285.996955074 856 193 c 0
 809 78 702.623307285 -16 534 -16 c 0
 451.441556448 -16 351.404530744 -1.40139726897 224 25 c 1
 224 148 l 1
 352.152671756 120.917335194 457.757996341 104 534 104 c 0
 635 104 699.677988422 152.140411087 736 235 c 0
 768 308 768 410 768 512 c 2
 768 1160 l 1
 256 1160 l 1
 256 1280 l 1
 469.333333333 1280 682.666666667 1280 896 1280 c 1
 896 512 l 2
EndSplineSet
Layer: 2
Layer: 3
Layer: 4
EndChar
StartChar: M
Encoding: 77 77 28
Width: 1024
VWidth: 0
Flags: W
HStem: 0 21G<128 256 896 1024> 1388 20G<128 266.194 885.829 1024>
VStem: 128 128<0 1140> 896 128<0 1140>
LayerCount: 5
Back
SplineSet
192 0 m 29
 192 1521 l 29
 576 900 l 29
 960 1521 l 29
 960 0 l 1053
EndSplineSet
Fore
SplineSet
256 0 m 1
 128 0 l 1
 128 1408 l 5
 256 1408 l 5
 571 790 l 5
 581.720703125 790 l 5
 896 1408 l 5
 1024 1408 l 5
 1024 0 l 1
 896 0 l 1
 896 1140 l 5
 886 1140 l 5
 631 640 l 5
 521 640 l 5
 266 1140 l 5
 256 1140 l 5
 256 0 l 1
EndSplineSet
Layer: 2
Layer: 3
Layer: 4
EndChar
StartChar: N
Encoding: 78 78 41
Width: 1152
VWidth: 0
Flags: HW
HStem: 0 21G<128 256 883.647 1024> 1260 20G<128 267.373 896 1024>
VStem: 128 128<0 1020> 896 128<260 1280>
AnchorPoint: "bottom" 576 0 basechar 0
AnchorPoint: "top" 576 1280 basechar 0
LayerCount: 5
Back
SplineSet
192 0 m 5
 192 1521 l 5
 960 15 l 5
 960 1536 l 1029
EndSplineSet
Fore
SplineSet
256 0 m 1
 128 0 l 1
 128 1280 l 1
 255 1280 l 1
 886 260 l 1
 896 260 l 1
 896 1280 l 1
 1024 1280 l 1
 1024 0 l 1
 896 0 l 1
 266 1020 l 1
 256 1020 l 1
 256 0 l 1
EndSplineSet
Layer: 2
Layer: 3
Layer: 4
EndChar
StartChar: R
Encoding: 82 82 45
Width: 1152
VWidth: 0
Flags: W
HStem: 0 21G<128 256 793.584 937> 512 120<256 561> 1160 120<256 676.624>
VStem: 128 128<0 512 632 1160> 784 128<740.856 1052.75>
AnchorPoint: "top" 448 1280 basechar 0
AnchorPoint: "bottom" 576 0 basechar 0
LayerCount: 5
Back
Fore
SplineSet
256 0 m 1
 128 0 l 1
 128 1280 l 1
 449 1280 l 2
 526 1280 578 1280 633 1267 c 0
 792 1229 912 1092 912 896 c 0
 912 723 818 595 686 542 c 1
 937 0 l 1
 803 0 l 1
 561 514 l 1
 528 512 493 512 449 512 c 2
 256 512 l 1
 256 0 l 1
449 632 m 2
 525 632 565 634 601 642 c 0
 709 666 784 762 784 896 c 0
 784 1030 709 1126 601 1150 c 0
 565 1158 525 1160 449 1160 c 2
 256 1160 l 1
 256 632 l 1
 449 632 l 2
EndSplineSet
Layer: 2
SplineSet
439 760 m 6
 524 760 575 761 620 772 c 4
 755 805 848 925 848 1088 c 4
 848 1251 755 1371 620 1404 c 4
 575 1415 524 1416 439 1416 c 6
 256 1416 l 5
 256 760 l 5
 439 760 l 6
534.4140625 641.071289062 m 5
 505.526367188 640 474.323242188 640 439 640 c 6
 256 640 l 5
 256 0 l 5
 128 0 l 5
 128 1536 l 5
 439 1536 l 6
 526 1536 588 1536 652 1520 c 4
 838 1475 976 1312 976 1088 c 4
 976 868.202148438 843.12890625 707.13671875 662.416992188 658.657226562 c 5
 912.923828125 0 l 5
 769.30078125 0 l 5
 534.4140625 641.071289062 l 5
EndSplineSet
Layer: 3
Layer: 4
EndChar
StartChar: T
Encoding: 84 84 47
Width: 1152
VWidth: 0
Flags: W
HStem: 0 21G<512 640> 1160 120<128 512 640 1024>
VStem: 512 128<0 1160>
AnchorPoint: "top" 576 1280 basechar 0
AnchorPoint: "bottom" 576 0 basechar 0
LayerCount: 5
Back
Fore
SplineSet
1024 1280 m 1
 1024 1160 l 1
 640 1160 l 1
 640 0 l 1
 512 0 l 1
 512 1160 l 1
 128 1160 l 1
 128 1280 l 1
 1024 1280 l 1
EndSplineSet
Layer: 2
Layer: 3
Layer: 4
EndChar
StartChar: V
Encoding: 86 86 49
Width: 1024
VWidth: 0
Flags: W
HStem: 0 119<552.645 599.355> 1388 20G<103 261.17 890.83 1049>
VStem: 103 135<1041.25 1408> 914 135<1041.25 1408>
LayerCount: 5
Back
Fore
SplineSet
103 1408 m 5
 238 1408 l 5
 284.340820312 899.850752029 371.736170213 467.700578036 571 119 c 1
 581 119 l 1
 780.263829787 467.701261438 867.659179688 899.851640376 914 1408 c 5
 1049 1408 l 5
 1005.38085938 911.625 912.704699901 437.25 636 0 c 1
 516 0 l 1
 239.295384615 437.25 146.618164062 911.625 103 1408 c 5
EndSplineSet
Layer: 2
Layer: 3
Layer: 4
EndChar
StartChar: W
Encoding: 87 87 50
Width: 1152
VWidth: 0
Flags: HW
HStem: 0 21G<257 387.136 764.864 895> 1260 20G<116 247 905 1036>
VStem: 116 131<818.6 1280> 905 131<818.6 1280>
AnchorPoint: "top" 576 1280 basechar 0
LayerCount: 5
Back
Fore
SplineSet
514 896 m 1
 638 896 l 1
 812 210 l 1
 822 210 l 1
 887 539.938574939 905 907.997543002 905 1280 c 1
 1036 1280 l 1
 1036 851.08219178 988.377483444 424.665362034 895 2 c 1
 770 0 l 1
 581 736 l 1
 571 736 l 1
 382 0 l 1
 257 2 l 1
 163.622516556 424.665362034 116 851.08219178 116 1280 c 1
 247 1280 l 1
 247 907.997543002 266.369863013 539.938574939 330 210 c 1
 340 210 l 1
 514 896 l 1
EndSplineSet
Layer: 2
Layer: 3
Layer: 4
EndChar
StartChar: Y
Encoding: 89 89 52
Width: 1152
VWidth: 0
Flags: W
HStem: 0 21G<512 640> 1260 20G<103 261.17 890.83 1049>
VStem: 103 135<1077.14 1280> 512 128<0 488.354> 914 135<1077.14 1280>
CounterMasks: 1 38
AnchorPoint: "top" 576 1280 basechar 0
LayerCount: 5
Back
Fore
SplineSet
103 1280 m 1
 238 1280 l 1
 284.340820312 998.92132365 371.736170213 759.880924856 571 567 c 1
 581 567 l 1
 780.263829787 759.881302875 867.659179688 998.92181504 914 1280 c 1
 1049 1280 l 1
 1005.59172033 988.207091 913.599572241 709.284313493 640 452.037109375 c 1
 640 0 l 1
 512 0 l 1
 512 452.037109375 l 1
 238.400501807 709.28431353 146.407307763 988.20709103 103 1280 c 1
EndSplineSet
Layer: 2
Layer: 3
Layer: 4
EndChar
StartChar: Z
Encoding: 90 90 53
Width: 1152
VWidth: 0
Flags: W
HStem: 0 120<293 1024> 1160 120<148 838.92>
AnchorPoint: "top" 576 1280 basechar 0
LayerCount: 5
Back
Fore
SplineSet
148 1160 m 1
 148 1280 l 1
 1004 1280 l 1
 1004 1190 l 1
 293.080078125 130 l 1
 293 120 l 1
 1024 120 l 1
 1024 0 l 1
 128 0 l 1
 128 92 l 1
 839 1150 l 1
 838.919921875 1160 l 1
 148 1160 l 1
EndSplineSet
Layer: 2
Layer: 3
Layer: 4
EndChar
StartChar: h
Encoding: 104 104 8
Width: 1152
VWidth: 0
Flags: HW
HStem: 0 21G<256 384 768 896> 920 120<471.273 704.311> 1516 20G<256 384>
VStem: 256 128<0 857.984 912 1536> 768 128<0 854.076>
AnchorPoint: "top" 576 1280 basechar 0
LayerCount: 5
Back
Fore
SplineSet
596 1040 m 0
 696 1040 777.155474098 995.125061269 827 933 c 0
 896 847 896 751 896 657 c 2
 896 0 l 1
 768 0 l 1
 768 657 l 2
 768 744 767.984540224 805.986625366 723 858 c 0
 691 895 640 920 576 920 c 0
 512 920 461.010997397 894.990485881 429 858 c 0
 384 806 384 744 384 657 c 2
 384 0 l 1
 256 0 l 1
 256 1280 l 1
 384 1280 l 1
 384 912 l 1
 394 912 l 1
 443 989 520 1040 596 1040 c 0
EndSplineSet
Layer: 2
Layer: 3
Layer: 4
EndChar
StartChar: m
Encoding: 109 109 13
Width: 1152
VWidth: 0
Flags: W
HStem: 0 21G<128 256 512 640 896 1024> 920 120<305.789 483.902 668.084 868.083> 1004 20G<128 256>
VStem: 128 128<0 892.641 949 1024> 512 128<0 892.641> 896 128<0 891.29>
CounterMasks: 1 1c
LayerCount: 5
Back
SplineSet
798 1040 m 4
 873.575757576 1040 934.907880149 1003.9316998 972 954 c 4
 1024 884 1024 814 1024 730 c 6
 1024 0 l 5
 896 0 l 5
 896 730 l 6
 896 797 895.999862231 844.999878439 866 879 c 4
 844.900390625 902.913085938 811 920 768 920 c 4
 725 920 691.099403425 902.912657215 670 879 c 4
 640 845 640 797 640 730 c 6
 640 0 l 5
 512 0 l 5
 512 1024 l 5
 640 1024 l 5
 640 949 l 5
 650 949 l 5
 690.46875 1007.70967742 737.757911392 1040 798 1040 c 4
414 1040 m 4
 489.575757576 1040 550.907880149 1003.9316998 588 954 c 4
 640 884 640 814 640 730 c 6
 640 0 l 5
 512 0 l 5
 512 730 l 6
 512 797 511.999862231 844.999878439 482 879 c 4
 460.900390625 902.913085938 427 920 384 920 c 4
 341 920 307.099403425 902.912657215 286 879 c 4
 256 845 256 797 256 730 c 6
 256 0 l 5
 128 0 l 5
 128 1024 l 5
 256 1024 l 5
 256 949 l 5
 266 949 l 5
 306.46875 1007.70967742 353.757911392 1040 414 1040 c 4
EndSplineSet
Fore
SplineSet
414 1040 m 0xdc
 497.909936387 1040 561.148539023 991.657760354 596.516601562 928.940429688 c 1
 651.690920332 1000.615447 716.125377518 1040 798 1040 c 0
 873.575757576 1040 934.907880149 1003.9316998 972 954 c 0
 1024 884 1024 814 1024 730 c 2
 1024 0 l 1
 896 0 l 1
 896 730 l 2
 896 797 895.999862231 844.999878439 866 879 c 0
 844.900390625 902.913085938 811 920 768 920 c 0
 725 920 691.099403425 902.912657215 670 879 c 0
 640 845 640 797 640 730 c 2
 640 0 l 5
 512 0 l 5
 512 730 l 2
 512 797 511.999862231 844.999878439 482 879 c 0
 460.900390625 902.913085938 427 920 384 920 c 0xdc
 341 920 307.099403425 902.912657215 286 879 c 0
 256 845 256 797 256 730 c 2
 256 0 l 1
 128 0 l 1
 128 1024 l 1
 256 1024 l 1xbc
 256 949 l 1
 266 949 l 1
 306.46875 1007.70967742 353.757911392 1040 414 1040 c 0xdc
EndSplineSet
Layer: 2
SplineSet
384 980 m 0
 497.099786932 980 576 901.287286932 576 788 c 0
 576 674.712713068 497.099786932 596 384 596 c 0
 270.900213068 596 192 674.712713068 192 788 c 0
 192 901.287286932 270.900213068 980 384 980 c 0
EndSplineSet
Layer: 3
SplineSet
192 1024 m 1
 192 0 l 1025
  Spiro
    192 1024 {
    192 0 v
    0 0 z
  EndSpiro
192 0 m 1
 192 760 l 2
 192 787.714711887 192.512031429 815.691153786 199.014153359 842.632342798 c 0
 205.51627529 869.57353181 217.939956758 895.189749935 235.965433786 916.241767246 c 0
 253.990910815 937.293784557 277.303335918 953.63755532 302.899995799 964.263761507 c 0
 328.49665568 974.889967693 356.285288113 980.000000001 384 980 c 0
 411.714711887 980 439.503344321 974.889967691 465.100004202 964.263761504 c 0
 490.696664082 953.637555316 514.009089185 937.293784552 532.034566213 916.24176724 c 0
 550.060043242 895.18974993 562.483724709 869.573531806 568.98584664 842.632342795 c 0
 575.487968571 815.691153784 576 787.714711886 576 760 c 2
 576 0 l 1025
  Spiro
    192 0 {
    192 760 ]
    384 980 o
    576 760 [
    576 0 v
    0 0 z
  EndSpiro
EndSplineSet
Layer: 4
EndChar
StartChar: y
Encoding: 121 121 24
Width: 1152
VWidth: 0
Flags: W
HStem: -528 120<256 392.5> 1004 20G<201 353 803 951>
VStem: 201 135<727.078 1024> 816 135<712.23 1024>
AnchorPoint: "top" 576 1024 basechar 0
LayerCount: 5
Back
SplineSet
201 1024 m 1
 336 1024 l 1
 366 667.231213873 442 363.820809249 571 119 c 1
 581 119 l 1
 710 363.821289062 786 667.231445312 816 1024 c 1
 951 1024 l 1
 919.984375 663 832.75390625 318 636 0 c 1
 516 0 l 1
 319.246153846 318 232.015384615 663 201 1024 c 1
  Spiro
    201 1024 v
    336 1024 v
    381.531 685.532 o
    459.502 382.874 o
    571 119 v
    581 119 v
    692.498 382.874 o
    770.469 685.532 o
    816 1024 v
    951 1024 v
    899.346 669.09 o
    798.091 326.258 o
    636 0 v
    516 0 v
    353.909 326.258 o
    252.654 669.09 o
    0 0 z
  EndSpiro
EndSplineSet
Fore
SplineSet
201 1024 m 1
 336 1024 l 1
 370 675 456 378 601 139 c 1
 611 139 l 1
 724 378 790 675 816 1024 c 1
 951 1024 l 1
 916.549019608 679.378486056 847.44575711 364.389062129 700 24 c 2
 525 -380 l 2
 515.918716887 -400.964790731 506.250987209 -426.202872806 486 -451 c 0
 437 -511 362 -528 257 -528 c 2
 256 -528 l 1
 256 -408 l 1
 257 -408 l 2
 314 -408 360.024852611 -408.8251895 384 -378 c 0
 391 -369 399 -355 407 -336 c 2
 552 0 l 1
 323 328 235.591304348 663 201 1024 c 1
EndSplineSet
Layer: 2
SplineSet
391 -728 m 5
 391 -728 1005.36170213 962.091816367 1216 1536 c 1029
  Spiro
    391 -728 {
    557.788 -269.387 o
    908.89 694.973 o
    1216 1536 v
    0 0 z
  EndSpiro
653 5 m 5
 64 1536 l 1029
  Spiro
    653 5 {
    64 1536 v
    0 0 z
  EndSpiro
EndSplineSet
Layer: 3
SplineSet
596 -54 m 1
 466 -358 l 2
 457.563898426 -377.727499064 448.453103785 -397.460990346 434.85359019 -414.056027528 c 0
 421.254076596 -430.65106471 403.53896582 -443.783312939 383.822117037 -452.244276427 c 0
 364.105268254 -460.705239913 342.71200732 -464.662751865 321.32882854 -466.42391464 c 0
 299.94564976 -468.185077414 278.455582701 -468.000000003 257 -468 c 2
 256 -468 l 1025
  Spiro
    596 -54 {
    466 -358 ]
    257 -468 [
    256 -468 o
    0 0 z
  EndSpiro
EndSplineSet
Layer: 4
EndChar
StartChar: z
Encoding: 122 122 25
Width: 1152
VWidth: 0
Flags: HW
HStem: 0 120<401 896> 904 120<276 730.92>
VStem: 256 640<0 92>
AnchorPoint: "top" 576 1024 basechar 0
LayerCount: 5
Back
Fore
SplineSet
276 904 m 1
 276 1024 l 1
 876 1024 l 1
 876 934 l 1
 401.080078125 130 l 1
 401 120 l 1
 896 120 l 1
 896 0 l 1
 256 0 l 1
 256 92 l 1
 731 894 l 1
 730.919921875 904 l 1
 276 904 l 1
EndSplineSet
Layer: 2
Layer: 3
Layer: 4
EndChar
StartChar: Aring
Encoding: 197 197 156
Width: 1152
VWidth: 0
Flags: H
HStem: 0 21G<103 243.014 908.986 1049> 388 120<304.014 847.986> 1161 119<547.907 604.093> 1196 100<491.282 660.721> 1512 100<491.279 660.718>
VStem: 368 108<1309.5 1498.5> 676 108<1309.5 1498.5>
LayerCount: 5
Back
Fore
SplineSet
103 0 m 5
 146.618164062 451.25 239.294921875 882.5 516 1280 c 5
 636 1280 l 5xee
 912.705078125 882.5 1005.38085938 451.25 1049 0 c 5
 914 0 l 5
 903.971679688 135.987304688 891.067382812 265.390625 873.6796875 388 c 5
 278.3203125 388 l 5
 260.932617188 265.390625 248.028320312 135.987304688 238 0 c 5
 103 0 l 5
847.986328125 508 m 5
 790.479492188 751.920898438 706.771484375 970.0703125 581 1161 c 5
 571 1161 l 5
 445.228515625 970.0703125 361.520507812 751.920898438 304.013671875 508 c 5
 847.986328125 508 l 5
576 1512 m 4xde
 518.13671875 1512 476 1478.05664062 476 1404 c 4
 476 1329.96484375 518.0625 1296 576 1296 c 4
 633.865234375 1296 676 1329.94140625 676 1404 c 4
 676 1478.03515625 633.9375 1512 576 1512 c 4xde
576 1612 m 4
 699.30078125 1612 784 1518.32519531 784 1404 c 4
 784 1289.69140625 699.358398438 1196 576 1196 c 4
 452.69921875 1196 368 1289.67382812 368 1404 c 4
 368 1518.30761719 452.640625 1612 576 1612 c 4
EndSplineSet
Layer: 2
Layer: 3
Layer: 4
EndChar
StartChar: Egrave
Encoding: 200 200 105
Width: 1024
VWidth: 0
Flags: W
HStem: 0 120<384 1024> 516 120<384 896> 1032 120<384 1024> 1280 21G<513.031 664>
VStem: 256 128<120 516 636 1032>
LayerCount: 5
Back
Fore
SplineSet
256 1152 m 5
 1024 1152 l 5
 1024 1032 l 5
 384 1032 l 5
 384 636 l 5
 896 636 l 5
 896 516 l 5
 384 516 l 5
 384 120 l 1
 1024 120 l 1
 1024 0 l 1
 256 0 l 1
 256 1152 l 5
664 1280 m 5
 526 1280 l 5
 360 1536 l 5
 498 1536 l 5
 664 1280 l 5
EndSplineSet
Layer: 2
Layer: 3
Layer: 4
EndChar
StartChar: Edieresis
Encoding: 203 203 116
Width: 1024
VWidth: 0
Flags: W
HStem: 0 120<384 1024> 516 120<384 896> 1032 120<384 1024> 1328 224<261.032 442.968 709.032 890.968>
VStem: 240 224<1349.03 1530.97> 256 128<120 516 636 1032> 688 224<1349.03 1530.97>
LayerCount: 5
Back
Fore
SplineSet
256 1152 m 5xf6
 1024 1152 l 5
 1024 1032 l 5
 384 1032 l 5
 384 636 l 5
 896 636 l 5
 896 516 l 5
 384 516 l 5
 384 120 l 1
 1024 120 l 1
 1024 0 l 1
 256 0 l 1
 256 1152 l 5xf6
800 1552 m 4
 866 1552 912 1506 912 1440 c 4
 912 1374 866 1328 800 1328 c 4
 734 1328 688 1374 688 1440 c 4
 688 1506 734 1552 800 1552 c 4
352 1552 m 4
 418 1552 464 1506 464 1440 c 4
 464 1374 418 1328 352 1328 c 4
 286 1328 240 1374 240 1440 c 4xfa
 240 1506 286 1552 352 1552 c 4
EndSplineSet
Layer: 2
Layer: 3
Layer: 4
EndChar
StartChar: Igrave
Encoding: 204 204 118
Width: 1024
VWidth: 0
Flags: HW
HStem: 0 120<256 512 640 896> 1032 120<256 512 640 896> 1280 256
VStem: 360 304 512 128<120 1032>
LayerCount: 5
Back
Fore
SplineSet
896 1152 m 5
 896 1032 l 5
 640 1032 l 5
 640 120 l 1
 896 120 l 1
 896 0 l 1
 256 0 l 1
 256 120 l 1
 512 120 l 1
 512 1032 l 5xe8
 256 1032 l 5
 256 1152 l 5
 896 1152 l 5
664 1280 m 5xf0
 526 1280 l 5
 360 1536 l 5
 498 1536 l 5
 664 1280 l 5xf0
EndSplineSet
Layer: 2
Layer: 3
Layer: 4
EndChar
StartChar: thorn
Encoding: 254 254 160
Width: 1024
VWidth: 0
Flags: W
HStem: -16 120<483.614 706.044> 920 120<483.616 706.024>
VStem: 256 128<212.636 811.363> 800 128<213.324 810.675>
LayerCount: 5
Back
Fore
SplineSet
592 104 m 0
 496 104 435.988127149 176.996093468 410 256 c 0
 385 332 384 420 384 512 c 0
 384 604 384.988578581 692.003757997 410 768 c 0
 436 847 496 920 592 920 c 0
 688 920 748.011872851 847.003906532 774 768 c 0
 799 692 800 604 800 512 c 0
 800 420 799.011421419 331.996242003 774 256 c 0
 748 177 688 104 592 104 c 0
612 -16 m 0
 743 -16 853.303821428 70.9051403052 900 221 c 0
 928 311 928 400 928 512 c 0
 928 624 928.182177648 713.056879846 900 803 c 0
 853 953 743 1040 612 1040 c 0
 529 1040 453 991 394 899 c 1
 384 899 l 1
 384 1536 l 1
 256 1536 l 1
 256 -512 l 1
 384 -512 l 1
 384 125 l 1
 394 125 l 1
 453 33 529 -16 612 -16 c 0
EndSplineSet
Layer: 2
Layer: 3
Layer: 4
EndChar
StartChar: Amacron
Encoding: 256 256 176
Width: 1152
VWidth: 0
Flags: H
LayerCount: 5
Back
Fore
SplineSet
103 0 m 5
 146.618164062 451.25 239.294921875 882.5 516 1280 c 5
 636 1280 l 5
 912.705078125 882.5 1005.38085938 451.25 1049 0 c 5
 914 0 l 5
 903.971679688 135.987304688 891.067382812 265.390625 873.6796875 388 c 5
 278.3203125 388 l 5
 260.932617188 265.390625 248.028320312 135.987304688 238 0 c 5
 103 0 l 5
847.986328125 508 m 5
 790.479492188 751.920898438 706.771484375 970.0703125 581 1161 c 5
 571 1161 l 5
 445.228515625 970.0703125 361.520507812 751.920898438 304.013671875 508 c 5
 847.986328125 508 l 5
256 1532 m 5
 896 1532 l 5
 896 1412 l 5
 256 1412 l 5
 256 1532 l 5
EndSplineSet
Layer: 2
Layer: 3
Layer: 4
EndChar
StartChar: Abreve
Encoding: 258 258 178
Width: 1152
VWidth: 0
Flags: H
LayerCount: 5
Back
Fore
SplineSet
103 0 m 5
 146.618164062 451.25 239.294921875 882.5 516 1280 c 5
 636 1280 l 5
 912.705078125 882.5 1005.38085938 451.25 1049 0 c 5
 914 0 l 5
 903.971679688 135.987304688 891.067382812 265.390625 873.6796875 388 c 5
 278.3203125 388 l 5
 260.932617188 265.390625 248.028320312 135.987304688 238 0 c 5
 103 0 l 5
847.986328125 508 m 5
 790.479492188 751.920898438 706.771484375 970.0703125 581 1161 c 5
 571 1161 l 5
 445.228515625 970.0703125 361.520507812 751.920898438 304.013671875 508 c 5
 847.986328125 508 l 5
788 1664 m 1
 916 1664 l 1
 916 1495.94628906 764.259765625 1392 576 1392 c 0
 387.739257812 1392 236 1495.94433594 236 1664 c 1
 364 1664 l 1
 364 1577.65527344 433.061523438 1512 576 1512 c 0
 718.939453125 1512 788 1577.65332031 788 1664 c 1
EndSplineSet
Layer: 2
Layer: 3
Layer: 4
EndChar
StartChar: abreve
Encoding: 259 259 179
Width: 1024
VWidth: 0
Flags: HW
HStem: -16 120<416.403 660.71> 0 21G<768 896> 512 110<418.102 768> 920 120<324.593 738.851> 1136 120<418.7 733.3> 1388 20G<236 364 788 916>
VStem: 224 128<169.682 443.733 1320.49 1408> 768 128<0 123 195.803 512 622 892.213> 788 128<1307.55 1408>
LayerCount: 5
Back
Fore
SplineSet
768 512 m 1xbc
 572 512 l 2
 517 512 459 512 408 458 c 0
 372 420 352 362 352 303 c 0
 352 194 425 104 532 104 c 0
 638 104 715 162 746 235 c 0
 768 287 768 349 768 421 c 2
 768 512 l 1xbc
608 1040 m 0
 704 1040 805 1021 866 913 c 0
 896 860 896 785 896 749 c 2
 896 0 l 1
 768 0 l 1x7c
 768 123 l 1
 758 123 l 1
 694 35 617 -16 508 -16 c 0
 455 -16 347 10 283 106 c 0
 249 157 224 224 224 301 c 0
 224 383 249 470 312 533 c 0
 402 622 512 622 574 622 c 2
 768 622 l 1
 768 744 l 2
 768 788 768 831 750 862 c 0
 729 898 696 920 608 920 c 0
 549 920 418 906 320 891 c 1
 320 1013 l 1
 417 1027 545 1040 608 1040 c 0
788 1408 m 5
 916 1408 l 5
 916 1239.94628906 764.259765625 1136 576 1136 c 4
 387.739257812 1136 236 1239.94433594 236 1408 c 5
 364 1408 l 5
 364 1321.65527344 433.061523438 1256 576 1256 c 4
 718.939453125 1256 788 1321.65332031 788 1408 c 5
EndSplineSet
Layer: 2
Layer: 3
Layer: 4
EndChar
StartChar: Ccircumflex
Encoding: 264 264 196
Width: 1024
VWidth: 0
Flags: HW
HStem: -16 120<446.703 926.39> 1176 120<446.669 927.707> 1408 21G<200 384.591 767.409 952>
VStem: 112 128<342.773 937.204>
LayerCount: 5
Back
Fore
SplineSet
643.006835938 104 m 0
 784.538085938 104 902.990234375 141.715820312 1024 172.934570312 c 1
 1024 48.517578125 l 1
 906.576171875 18.5400390625 786.538085938 -16 642.99609375 -16 c 0
 299.700195312 -15.962890625 112 213.393554688 112 576 c 0
 112 938.569335938 299.590820312 1167.97949219 643.0703125 1168 c 0
 786.495117188 1168 906.65234375 1133.44238281 1024 1103.48242188 c 1
 1024 979.065429688 l 1
 903.024414062 1010.27441406 784.555664062 1048 643.0703125 1048 c 0
 369.611328125 1047.98339844 240 870.33203125 240 576 c 0
 240 281.739257812 369.538085938 104.029296875 643.006835938 104 c 0
497 1536 m 1
 655 1536 l 1
 952 1280 l 1
 794 1280 l 1
 576 1443.96289062 l 1
 358 1280 l 1
 200 1280 l 1
 497 1536 l 1
EndSplineSet
Layer: 2
Layer: 3
Layer: 4
EndChar
StartChar: ccircumflex
Encoding: 265 265 182
Width: 1152
VWidth: 0
Flags: H
LayerCount: 5
Back
Fore
SplineSet
224 512 m 0
 224 633.270507812 226 738 264 831 c 0
 311 946 417.376953125 1040 586 1040 c 0
 668.55859375 1040 768.595703125 1025.40136719 896 999 c 1
 896 876 l 1
 767.84765625 903.083007812 662.2421875 920 586 920 c 0
 485 920 420 872 384 789 c 0
 352 716 352 613.502929688 352 512 c 1
 352 410.497070312 352 308 384 235 c 0
 420 152 485 104 586 104 c 0
 662.2421875 104 767.84765625 120.916992188 896 148 c 1
 896 25 l 1
 768.595703125 -1.4013671875 668.55859375 -16 586 -16 c 0
 417.376953125 -16 311 78 264 193 c 0
 226 286 224 390.729492188 224 512 c 0
497 1408 m 1
 655 1408 l 1
 952 1152 l 1
 794 1152 l 1
 576 1315.96289062 l 1
 358 1152 l 1
 200 1152 l 1
 497 1408 l 1
EndSplineSet
Layer: 2
Layer: 3
Layer: 4
EndChar
StartChar: Cdotaccent
Encoding: 266 266 197
Width: 1152
VWidth: 0
Flags: H
LayerCount: 5
Back
Fore
SplineSet
1024 173 m 1
 1024 49 l 1
 907 19 777 -16 643 -16 c 0
 542.661132812 -16 436.330078125 6.509765625 347 64 c 0
 246 129 175.33984375 236.872070312 143 364 c 0
 119.091796875 457.985351562 112 550.706054688 112 640 c 0
 112 729.293945312 118.7109375 822.064453125 143 916 c 0
 175.838867188 1043 246.374023438 1150.42285156 347 1216 c 0
 436 1274 542.661132812 1296 643 1296 c 0
 765.651367188 1296 884.952148438 1266.67675781 994 1238.70507812 c 1
 994 1114.71875 l 1
 880.54296875 1143.95898438 755.025390625 1176 643 1176 c 0
 430 1176 312.309570312 1059.92089844 268 888 c 0
 247.770507812 809.510742188 240 726.919921875 240 640 c 0
 240 553.080078125 247.916992188 470.506835938 268 392 c 0
 312 220 430 104 643 104 c 0
 765 104 903 142 1024 173 c 1
576 1680 m 4
 642 1680 688 1634 688 1568 c 4
 688 1502 642 1456 576 1456 c 4
 510 1456 464 1502 464 1568 c 4
 464 1634 510 1680 576 1680 c 4
EndSplineSet
Layer: 2
Layer: 3
Layer: 4
EndChar
StartChar: dcroat
Encoding: 273 273 257
Width: 1152
VWidth: 0
Flags: HW
LayerCount: 5
Back
Fore
SplineSet
540 1040 m 0x7c
 409 1040 299 953 252 803 c 0
 224 713 224 624 224 512 c 0
 224 400 224 311 252 221 c 0
 299 71 409 -16 540 -16 c 0xbc
 623 -16 699 33 758 125 c 1
 768 125 l 1
 768 0 l 1
 896 0 l 1
 896 1536 l 1
 768 1536 l 1
 768 899 l 1
 758 899 l 1
 699 991 623 1040 540 1040 c 0x7c
560 920 m 4
 656 920 716 847 742 768 c 4
 767 692 768 604 768 512 c 4
 768 420 767 332 742 256 c 4
 716 177 656 104 560 104 c 4
 464 104 404 177 378 256 c 4
 353 332 352 420 352 512 c 4
 352 604 353 692 378 768 c 4
 404 847 464 920 560 920 c 4
EndSplineSet
Layer: 2
Layer: 3
Layer: 4
EndChar
StartChar: Emacron
Encoding: 274 274 187
Width: 1024
VWidth: 0
Flags: HW
HStem: 0 120<384 1024> 516 120<384 896> 1032 120<384 1024> 1284 120<256 896>
VStem: 256 128<120 516 636 1032>
LayerCount: 5
Back
Fore
SplineSet
256 1152 m 5
 1024 1152 l 5
 1024 1032 l 5
 384 1032 l 5
 384 636 l 5
 896 636 l 5
 896 516 l 5
 384 516 l 5
 384 120 l 1
 1024 120 l 1
 1024 0 l 1
 256 0 l 1
 256 1152 l 5
256 1536 m 5
 896 1536 l 5
 896 1416 l 5
 256 1416 l 5
 256 1536 l 5
EndSplineSet
Layer: 2
Layer: 3
Layer: 4
EndChar
StartChar: Ebreve
Encoding: 276 276 189
Width: 1152
VWidth: 0
Flags: H
LayerCount: 5
Back
Fore
SplineSet
256 1280 m 5
 1024 1280 l 5
 1024 1160 l 5
 384 1160 l 5
 384 764 l 5
 896 764 l 5
 896 644 l 5
 384 644 l 5
 384 120 l 5
 1024 120 l 5
 1024 0 l 5
 256 0 l 5
 256 1280 l 5
788 1664 m 1
 916 1664 l 1
 916 1495.94628906 764.259765625 1392 576 1392 c 0
 387.739257812 1392 236 1495.94433594 236 1664 c 1
 364 1664 l 1
 364 1577.65527344 433.061523438 1512 576 1512 c 0
 718.939453125 1512 788 1577.65332031 788 1664 c 1
EndSplineSet
Layer: 2
Layer: 3
Layer: 4
EndChar
StartChar: Edotaccent
Encoding: 278 278 191
Width: 1152
VWidth: 0
Flags: H
LayerCount: 5
Back
Fore
SplineSet
256 1280 m 5
 1024 1280 l 5
 1024 1160 l 5
 384 1160 l 5
 384 764 l 5
 896 764 l 5
 896 644 l 5
 384 644 l 5
 384 120 l 5
 1024 120 l 5
 1024 0 l 5
 256 0 l 5
 256 1280 l 5
576 1680 m 4
 642 1680 688 1634 688 1568 c 4
 688 1502 642 1456 576 1456 c 4
 510 1456 464 1502 464 1568 c 4
 464 1634 510 1680 576 1680 c 4
EndSplineSet
Layer: 2
Layer: 3
Layer: 4
EndChar
StartChar: Ecaron
Encoding: 282 282 193
Width: 1152
VWidth: 0
Flags: H
LayerCount: 5
Back
Fore
SplineSet
256 1280 m 5
 1024 1280 l 5
 1024 1160 l 5
 384 1160 l 5
 384 764 l 5
 896 764 l 5
 896 644 l 5
 384 644 l 5
 384 120 l 5
 1024 120 l 5
 1024 0 l 5
 256 0 l 5
 256 1280 l 5
497 1408 m 5
 655 1408 l 5
 952 1664 l 5
 794 1664 l 5
 576 1500.03710938 l 5
 358 1664 l 5
 200 1664 l 5
 497 1408 l 5
EndSplineSet
Layer: 2
Layer: 3
Layer: 4
EndChar
StartChar: Gdotaccent
Encoding: 288 288 208
Width: 1024
VWidth: 0
Flags: HW
HStem: -16 120<446.703 892.628> 520 120<640 896> 1176 120<446.669 927.707> 1456 224<485.032 666.968>
VStem: 112 128<342.773 937.204> 464 224<1477.03 1658.97> 896 128<130.442 520>
LayerCount: 5
Back
Fore
SplineSet
896 140 m 1
 896 520 l 1
 640 520 l 1
 640 640 l 1
 1024 640 l 1
 1024 49 l 1
 907 19 787 -16 643 -16 c 0
 300 -16 112 213 112 576 c 0
 112 939 300 1168 643 1168 c 0
 786 1168 907 1133 1024 1103 c 1
 1024 979 l 1
 903 1010 784 1048 643 1048 c 0
 370 1048 240 870 240 576 c 0
 240 282 370 104 643 104 c 0
 735.12109375 104 817.141601562 119.993164062 896.432617188 139.692382812 c 1
 896 140 l 1
576 1552 m 4
 642 1552 688 1506 688 1440 c 4
 688 1374 642 1328 576 1328 c 4
 510 1328 464 1374 464 1440 c 4
 464 1506 510 1552 576 1552 c 4
EndSplineSet
Layer: 2
Layer: 3
Layer: 4
EndChar
StartChar: Hcircumflex
Encoding: 292 292 199
Width: 1152
VWidth: 0
Flags: H
LayerCount: 5
Back
Fore
SplineSet
128 1280 m 1
 256 1280 l 1
 256 761 l 1
 896 761 l 1
 896 1280 l 1
 1024 1280 l 1
 1024 0 l 1
 896 0 l 1
 896 641 l 1
 256 641 l 1
 256 0 l 1
 128 0 l 1
 128 1280 l 1
497 1664 m 5
 655 1664 l 5
 952 1408 l 5
 794 1408 l 5
 576 1571.96289062 l 5
 358 1408 l 5
 200 1408 l 5
 497 1664 l 5
EndSplineSet
Layer: 2
Layer: 3
Layer: 4
EndChar
StartChar: itilde
Encoding: 297 297 211
Width: 1152
VWidth: 0
Flags: H
LayerCount: 5
Back
Fore
SplineSet
256 0 m 1
 256 120 l 1
 512 120 l 1
 512 904 l 1
 256 904 l 1
 256 1024 l 1
 640 1024 l 1
 640 120 l 1
 896 120 l 1
 896 0 l 1
 256 0 l 1
448 1284 m 0
 397 1284 384 1225 381 1171 c 1
 253 1177 l 1
 257 1295 319 1404 448 1404 c 0
 594 1404 627 1276 704 1276 c 0
 755 1276 768 1335 771 1389 c 1
 899 1383 l 1
 896 1267 833 1156 704 1156 c 0
 558 1156 525 1284 448 1284 c 0
EndSplineSet
Layer: 2
Layer: 3
Layer: 4
EndChar
StartChar: Ibreve
Encoding: 300 300 214
Width: 1152
VWidth: 0
Flags: H
LayerCount: 5
Back
Fore
SplineSet
896 1280 m 1
 896 1160 l 1
 640 1160 l 1
 640 120 l 1
 896 120 l 1
 896 0 l 1
 256 0 l 1
 256 120 l 1
 512 120 l 1
 512 1160 l 1
 256 1160 l 1
 256 1280 l 1
 896 1280 l 1
788 1664 m 5
 916 1664 l 5
 916 1495.94628906 764.259765625 1392 576 1392 c 4
 387.739257812 1392 236 1495.94433594 236 1664 c 5
 364 1664 l 5
 364 1577.65527344 433.061523438 1512 576 1512 c 4
 718.939453125 1512 788 1577.65332031 788 1664 c 5
EndSplineSet
Layer: 2
Layer: 3
Layer: 4
EndChar
StartChar: iogonek
Encoding: 303 303 265
Width: 1024
VWidth: 0
Flags: W
HStem: -400 120<651.912 894.146> -20 20G<737.38 896> 0 120<256 512 640 896> 904 120<256 512> 1328 224<453.032 634.968>
VStem: 432 224<1349.03 1530.97> 512 128<-262.716 -135.229 120 904>
LayerCount: 5
Back
Fore
SplineSet
544 1552 m 0x9c
 610 1552 656 1506 656 1440 c 0
 656 1374 610 1328 544 1328 c 0
 478 1328 432 1374 432 1440 c 0
 432 1506 478 1552 544 1552 c 0x9c
256 0 m 1xba
 256 120 l 1
 512 120 l 1
 512 904 l 1
 256 904 l 1
 256 1024 l 1
 640 1024 l 1
 640 120 l 1
 896 120 l 1xba
 896 0 l 1xda
 256 0 l 1xba
767 -280 m 0
 813 -280 857 -270 896 -260 c 1
 896 -383 l 1
 856 -391 813 -400 767 -400 c 0
 653 -400 512 -325 512 -205 c 0
 512 -57 706.760742188 -63 768 0 c 5
 896 0 l 1xda
 854.838867188 -91 640 -103 640 -198 c 0
 640 -258 710 -280 767 -280 c 0
EndSplineSet
Layer: 2
Layer: 3
Layer: 4
EndChar
StartChar: Jcircumflex
Encoding: 308 308 249
Width: 1024
VWidth: 0
Flags: HW
HStem: -16 120<229.971 669.587> 1160 120<256 768> 1408 21G<200 384.591 767.409 952>
VStem: 768 128<210.579 1160>
LayerCount: 5
Back
Fore
SplineSet
896 512 m 2
 896 391 894.0078125 285.997070312 856 193 c 0
 809 78 702.623046875 -16 534 -16 c 0
 451.44140625 -16 351.404296875 -1.4013671875 224 25 c 1
 224 148 l 1
 352.15234375 120.916992188 457.7578125 104 534 104 c 0
 635 104 699.677734375 152.140625 736 235 c 0
 768 308 768 410 768 512 c 2
 768 1032 l 5
 256 1032 l 5
 256 1152 l 5
 469.333007812 1152 682.666992188 1152 896 1152 c 5
 896 512 l 2
497 1536 m 1
 655 1536 l 1
 952 1280 l 1
 794 1280 l 1
 576 1443.96289062 l 1
 358 1280 l 1
 200 1280 l 1
 497 1536 l 1
EndSplineSet
Layer: 2
Layer: 3
Layer: 4
EndChar
StartChar: jcircumflex
Encoding: 309 309 250
Width: 1024
VWidth: 0
Flags: W
HStem: -528 120<258.716 579.345> 898 126<384 640> 1388 20G<473.797 678.203>
VStem: 640 128<-347.784 898>
LayerCount: 5
Back
Fore
SplineSet
256 -364.9453125 m 1
 311.177734375 -387.188476562 380.022460938 -408 448 -408 c 0
 515 -408 565.341796875 -384.28515625 597 -346 c 0
 640 -294 640 -230 640 -142 c 2
 640 898 l 1
 384 898 l 1
 384 1024 l 1
 768 1024 l 1
 768 -152 l 2
 768 -243 767.811523438 -337.84375 700 -420 c 0
 648 -483 564 -528 458 -528 c 0
 383.448242188 -528 316.375 -513.041992188 256 -493.27734375 c 1
 256 -364.9453125 l 1
497 1408 m 5
 655 1408 l 5
 952 1152 l 5
 794 1152 l 5
 576 1315.96289062 l 5
 358 1152 l 5
 200 1152 l 5
 497 1408 l 5
EndSplineSet
Layer: 2
Layer: 3
Layer: 4
EndChar
StartChar: uni0136
Encoding: 310 310 278
Width: 1152
VWidth: 0
Flags: H
LayerCount: 5
Back
Fore
SplineSet
256 0 m 1
 128 0 l 1
 128 1408 l 1
 256 1408 l 1
 256 765 l 1
 820 1408 l 1
 969 1408 l 1
 486 827 l 1
 1062 0 l 1
 895 0 l 1
 384 729 l 1
 256 578 l 1
 256 0 l 1
640 -233 m 6
 640 -293 639.727539062 -362.798828125 588 -433 c 4
 546 -490 474.005859375 -528 384 -528 c 4
 384 -408 l 4
 431 -408 462.879882812 -390.909179688 484 -363 c 4
 512 -326 512 -283 512 -233 c 6
 512 -128 l 5
 640 -128 l 5
 640 -233 l 6
EndSplineSet
Layer: 2
Layer: 3
Layer: 4
EndChar
StartChar: uni013B
Encoding: 315 315 285
Width: 1024
VWidth: 0
Flags: W
HStem: -528 120<384 483.002> 0 120<384 1024> 1260 20G<256 384>
VStem: 256 128<120 1280> 512 128<-361.261 -128>
LayerCount: 5
Back
Fore
SplineSet
256 0 m 1
 256 1280 l 1
 384 1280 l 1
 384 120 l 1
 1024 120 l 1
 1024 0 l 1
 256 0 l 1
640 -233 m 6
 640 -293 639.727539062 -362.798828125 588 -433 c 4
 546 -490 474.005859375 -528 384 -528 c 4
 384 -408 l 4
 431 -408 462.879882812 -390.909179688 484 -363 c 4
 512 -326 512 -283 512 -233 c 6
 512 -128 l 5
 640 -128 l 5
 640 -233 l 6
EndSplineSet
Layer: 2
Layer: 3
Layer: 4
EndChar
StartChar: uni013C
Encoding: 316 316 286
Width: 1024
VWidth: 0
Flags: W
HStem: -528 120<512 611.002> -16 120<668.725 894.027> 1260 20G<512 640>
VStem: 512 128<149.787 1280> 640 128<-361.261 -128>
LayerCount: 5
Back
Fore
SplineSet
896 -2 m 1xe8
 853 -9 808 -16 758 -16 c 0
 686 -16 627 9 585 52 c 0
 512 128 512 218 512 279 c 2
 512 1280 l 1
 640 1280 l 1
 640 279 l 2xf0
 640 232 640 186 668 148 c 0
 688 121 719 104 768 104 c 0
 805 104 855 113 896 121 c 1
 896 -2 l 1xe8
768 -233 m 6xe8
 768 -293 767.727539062 -362.798828125 716 -433 c 4
 674 -490 602.005859375 -528 512 -528 c 4
 512 -408 l 4xf0
 559 -408 590.879882812 -390.909179688 612 -363 c 4
 640 -326 640 -283 640 -233 c 6
 640 -128 l 5
 768 -128 l 5
 768 -233 l 6xe8
EndSplineSet
Layer: 2
Layer: 3
Layer: 4
EndChar
StartChar: Ldot
Encoding: 319 319 287
Width: 1152
VWidth: 0
Flags: H
LayerCount: 5
Back
Fore
SplineSet
256 0 m 1
 256 1280 l 1
 384 1280 l 1
 384 120 l 1
 1024 120 l 1
 1024 0 l 1
 256 0 l 1
EndSplineSet
Layer: 2
Layer: 3
Layer: 4
EndChar
StartChar: Nacute
Encoding: 323 323 228
Width: 1152
VWidth: 0
Flags: H
LayerCount: 5
Back
Fore
SplineSet
256 0 m 1
 128 0 l 1
 128 1280 l 5
 255 1280 l 5
 886 260 l 1
 896 260 l 1
 896 1280 l 5
 1024 1280 l 5
 1024 0 l 1
 896 0 l 1
 266 1020 l 5
 256 1020 l 5
 256 0 l 1
488 1408 m 5
 626 1408 l 5
 792 1664 l 5
 654 1664 l 5
 488 1408 l 5
EndSplineSet
Layer: 2
Layer: 3
Layer: 4
EndChar
StartChar: uni0145
Encoding: 325 325 288
Width: 1024
VWidth: 0
Flags: W
HStem: -528 120<384 483.002> 0 21G<128 256 883.647 1024> 1260 20G<128 267.373 896 1024>
VStem: 128 128<0 1020> 512 128<-361.261 -128> 896 128<260 1280>
CounterMasks: 1 1c
LayerCount: 5
Back
Fore
SplineSet
256 0 m 1
 128 0 l 1
 128 1280 l 1
 255 1280 l 1
 886 260 l 1
 896 260 l 1
 896 1280 l 1
 1024 1280 l 1
 1024 0 l 1
 896 0 l 1
 266 1020 l 1
 256 1020 l 1
 256 0 l 1
640 -233 m 6
 640 -293 639.727539062 -362.798828125 588 -433 c 4
 546 -490 474.005859375 -528 384 -528 c 4
 384 -408 l 4
 431 -408 462.879882812 -390.909179688 484 -363 c 4
 512 -326 512 -283 512 -233 c 6
 512 -128 l 5
 640 -128 l 5
 640 -233 l 6
EndSplineSet
Layer: 2
Layer: 3
Layer: 4
EndChar
StartChar: Ncaron
Encoding: 327 327 229
Width: 1024
VWidth: 0
Flags: HW
HStem: 0 21G<128 256 883.647 1024> 1260 20G<128 267.373 896 1024>
VStem: 128 128<0 1020> 896 128<260 1280>
LayerCount: 5
Back
Fore
SplineSet
256 0 m 1
 128 0 l 1
 128 1152 l 1
 255 1152 l 1
 886 210 l 1
 896 210 l 1
 896 1152 l 1
 1024 1152 l 1
 1024 0 l 1
 896 0 l 1
 266 942 l 5
 256 942 l 5
 256 0 l 1
497 1280 m 1
 655 1280 l 1
 952 1536 l 1
 794 1536 l 1
 576 1372.03710938 l 1
 358 1536 l 1
 200 1536 l 1
 497 1280 l 1
EndSplineSet
Layer: 2
Layer: 3
Layer: 4
EndChar
StartChar: ncaron
Encoding: 328 328 230
Width: 1152
VWidth: 0
Flags: H
LayerCount: 5
Back
Fore
SplineSet
596 1040 m 0xd8
 696 1040 777 995 827 933 c 0
 896 847 896 751 896 657 c 2
 896 0 l 1
 768 0 l 1
 768 657 l 2
 768 744 768 806 723 858 c 0
 691 895 640 920 576 920 c 0xd8
 512 920 461 895 429 858 c 0
 384 806 384 744 384 657 c 2
 384 0 l 1
 256 0 l 1
 256 1024 l 1
 384 1024 l 1xb8
 384 912 l 1
 394 912 l 1
 443 989 520 1040 596 1040 c 0xd8
497 1152 m 5
 655 1152 l 5
 952 1408 l 5
 794 1408 l 5
 576 1244.03710938 l 5
 358 1408 l 5
 200 1408 l 5
 497 1152 l 5
EndSplineSet
Layer: 2
Layer: 3
Layer: 4
EndChar
StartChar: napostrophe
Encoding: 329 329 259
Width: 1024
VWidth: 0
Flags: W
HStem: 0 21G<256 384 768 896> 920 120<471.273 704.311> 1004 20G<256 384>
VStem: 256 128<0 857.984 912 1024> 768 128<0 854.076>
LayerCount: 5
Back
Fore
SplineSet
596 1040 m 4xd8
 696 1040 777 995 827 933 c 4
 896 847 896 751 896 657 c 6
 896 0 l 5
 768 0 l 5
 768 657 l 6
 768 744 768 806 723 858 c 4
 691 895 640 920 576 920 c 4xd8
 512 920 461 895 429 858 c 4
 384 806 384 744 384 657 c 6
 384 0 l 5
 256 0 l 5
 256 1024 l 5
 384 1024 l 5xb8
 384 912 l 5
 394 912 l 5
 443 989 520 1040 596 1040 c 4xd8
EndSplineSet
Layer: 2
Layer: 3
Layer: 4
EndChar
StartChar: Obreve
Encoding: 334 334 202
Width: 1152
VWidth: 0
Flags: H
LayerCount: 5
Back
Fore
SplineSet
240 640 m 0
 240 537.3515625 242 438 266 348 c 0
 304 206 406 104 576 104 c 0
 746 104 848 206 886 348 c 0
 910 438 912 537.3515625 912 640 c 0
 912 742.6484375 910 842 886 932 c 0
 848 1074 746 1176 576 1176 c 0
 406 1176 304 1074 266 932 c 0
 242 842 240 742.6484375 240 640 c 0
112 640 m 0
 112 743.677734375 113 853 142 962 c 0
 193 1153 344 1296 576 1296 c 0
 808 1296 959 1153 1010 962 c 0
 1039 853 1040 743.677734375 1040 640 c 0
 1040 536.322265625 1039 427 1010 318 c 0
 959 127 808 -16 576 -16 c 0
 344 -16 193 127 142 318 c 0
 113 427 112 536.322265625 112 640 c 0
788 1664 m 5
 916 1664 l 5
 916 1495.94628906 764.259765625 1392 576 1392 c 4
 387.739257812 1392 236 1495.94433594 236 1664 c 5
 364 1664 l 5
 364 1577.65527344 433.061523438 1512 576 1512 c 4
 718.939453125 1512 788 1577.65332031 788 1664 c 5
EndSplineSet
Layer: 2
Layer: 3
Layer: 4
EndChar
StartChar: Ohungarumlaut
Encoding: 336 336 245
Width: 1152
VWidth: 0
Flags: H
LayerCount: 5
Back
Fore
SplineSet
240 640 m 0
 240 537.3515625 242 438 266 348 c 0
 304 206 406 104 576 104 c 0
 746 104 848 206 886 348 c 0
 910 438 912 537.3515625 912 640 c 0
 912 742.6484375 910 842 886 932 c 0
 848 1074 746 1176 576 1176 c 0
 406 1176 304 1074 266 932 c 0
 242 842 240 742.6484375 240 640 c 0
112 640 m 0
 112 743.677734375 113 853 142 962 c 0
 193 1153 344 1296 576 1296 c 0
 808 1296 959 1153 1010 962 c 0
 1039 853 1040 743.677734375 1040 640 c 0
 1040 536.322265625 1039 427 1010 318 c 0
 959 127 808 -16 576 -16 c 0
 344 -16 193 127 142 318 c 0
 113 427 112 536.322265625 112 640 c 0
616 1408 m 5xa0
 754 1408 l 5
 920 1664 l 5
 782 1664 l 5
 616 1408 l 5xa0
360 1408 m 5xc0
 498 1408 l 5
 664 1664 l 5
 526 1664 l 5
 360 1408 l 5xc0
EndSplineSet
Layer: 2
Layer: 3
Layer: 4
EndChar
StartChar: oe
Encoding: 339 339 247
Width: 1152
VWidth: 0
Flags: W
HStem: -16 120<267.742 443.041 713.759 1021.08> 512 120<268.732 512 641 927> 924 120<131.557 482.669 709.875 868.153>
VStem: 96 128<147.047 465.682> 512 128<188.512 512 632 843.07> 927 127<632 859.393>
LayerCount: 5
Back
SplineSet
224 309 m 4
 224 215 260 104 348 104 c 4
 418 104 475.032367088 170.989586498 494 230 c 4
 512 286 512 351 512 421 c 6
 512 512 l 5
 377 512 l 6
 314 512 292.694536638 503.2127772 267 466 c 4
 238 424 224 367 224 309 c 4
574 148 m 5
 527.038961039 48.6567164179 448.770562771 -16 348 -16 c 4
 177 -16 96 144 96 309 c 4
 96 443 151.053578085 564.881380562 253 611 c 4
 295 630 337 632 370 632 c 6
 512 632 l 5
 512 748 l 6
 512 862 492 924 352 924 c 4
 306 924 204 914 128 904 c 5
 128 1026 l 5
 203 1035 303 1044 352 1044 c 4
 440 1044 533 1034 593 907 c 5
 603 907 l 5
 643.817258883 990 704.568527919 1040 790 1040 c 4
 927.640449438 1040 1006.85561971 917.085778426 1035 802 c 4
 1053.78972986 725.166519711 1054 649 1054 577 c 6
 1054 512 l 5
 640 512 l 5
 640 469 l 6
 640 289 654 104 832 104 c 4
 888.392523364 104 962.093457944 118.655172414 1024 129 c 5
 1024 7 l 5
 961.447614108 -2.64516129032 890.78843737 -16 829 -16 c 4
 723.581673307 -16 635.736972112 33.9701492537 584 148 c 5
 574 148 l 5
927 632 m 5
 924.6 729 911.781062215 817.46851813 875 873 c 4
 852.393617021 902 824.361702128 920 790 920 c 4
 716.563380282 920 675.504711299 842.046361236 658 773 c 4
 646 729 642 682 641 632 c 5
 927 632 l 5
EndSplineSet
Fore
SplineSet
224 309 m 4
 224 215 260 104 348 104 c 4
 418 104 475.032367088 170.989586498 494 230 c 4
 512 286 512 351 512 421 c 6
 512 512 l 5
 377 512 l 6
 314 512 292.694536638 503.2127772 267 466 c 4
 238 424 224 367 224 309 c 4
574 148 m 5
 527.038961039 48.6567164179 448.770562771 -16 348 -16 c 4
 177 -16 96 144 96 309 c 4
 96 443 151.053578085 564.881380562 253 611 c 4
 295 630 337 632 370 632 c 6
 512 632 l 5
 512 748 l 6
 512 862 492 924 352 924 c 4
 306 924 204 914 128 904 c 5
 128 1026 l 5
 203 1035 303 1044 352 1044 c 4
 440 1044 533 1034 593 907 c 5
 603 907 l 5
 643.817258883 990 704.568527919 1040 790 1040 c 4
 927.640449438 1040 1006.85561971 917.085778426 1035 802 c 4
 1053.78972986 725.166519711 1054 649 1054 577 c 6
 1054 512 l 5
 640 512 l 5
 640 469 l 6
 640 289 654 104 832 104 c 4
 888.392523364 104 962.093457944 118.655172414 1024 129 c 5
 1024 7 l 5
 961.447614108 -2.64516129032 890.78843737 -16 829 -16 c 4
 723.581673307 -16 635.736972112 33.9701492537 584 148 c 5
 574 148 l 5
927 632 m 5
 924.6 729 911.781062215 817.46851813 875 873 c 4
 852.393617021 902 824.361702128 920 790 920 c 4
 716.563380282 920 675.504711299 842.046361236 658 773 c 4
 646 729 642 682 641 632 c 5
 927 632 l 5
EndSplineSet
Layer: 2
Layer: 3
Layer: 4
EndChar
StartChar: uni0156
Encoding: 342 342 275
Width: 1152
VWidth: 0
HStem: -528 120<384 483.002> 0 21G<128 256 795.461 937> 640 120<256 561> 1288 120<256 676.624>
VStem: 128 128<0 640 760 1288> 512 128<-361.261 -128> 784 128<868.856 1180.75>
LayerCount: 5
Back
Fore
SplineSet
256 0 m 5
 128 0 l 5
 128 1408 l 5
 449 1408 l 6
 526 1408 578 1408 633 1395 c 4
 792 1357 912 1220 912 1024 c 4
 912 851 818 723 686 670 c 5
 937 0 l 5
 803 0 l 5
 561 642 l 5
 528 640 493 640 449 640 c 6
 256 640 l 5
 256 0 l 5
449 760 m 6
 525 760 565 762 601 770 c 4
 709 794 784 890 784 1024 c 4
 784 1158 709 1254 601 1278 c 4
 565 1286 525 1288 449 1288 c 6
 256 1288 l 5
 256 760 l 5
 449 760 l 6
640 -233 m 6
 640 -293 639.727539062 -362.798828125 588 -433 c 4
 546 -490 474.005859375 -528 384 -528 c 4
 384 -408 l 4
 431 -408 462.879882812 -390.909179688 484 -363 c 4
 512 -326 512 -283 512 -233 c 6
 512 -128 l 5
 640 -128 l 5
 640 -233 l 6
EndSplineSet
Layer: 2
Layer: 3
Layer: 4
EndChar
StartChar: uni0157
Encoding: 343 343 270
Width: 1152
VWidth: 0
HStem: -528 120<256 355.002> 0 21G<256 384> 920 120<504.976 892.252> 1004 20G<256 384>
VStem: 256 128<0 782.495 876 1024> 384 128<-361.261 -128>
LayerCount: 5
Back
Fore
SplineSet
256 1024 m 1xd8
 384 1024 l 1xd8
 384 876 l 1
 394 876 l 1
 460 982 537 1040 665 1040 c 0
 737.095703125 1040 818.080078125 1033.97949219 896 1025.94726562 c 1
 896 902.916015625 l 1
 814.1015625 912.82421875 729.64453125 920 665 920 c 0xe8
 589 920 535.232421875 902.721679688 491 866 c 0
 385 778 384 612 384 535 c 2
 384 0 l 1
 256 0 l 1
 256 1024 l 1xd8
512 -233 m 6xc4
 512 -293 511.727539062 -362.798828125 460 -433 c 4
 418 -490 346.005859375 -528 256 -528 c 4
 256 -408 l 4xc8
 303 -408 334.879882812 -390.909179688 356 -363 c 4
 384 -326 384 -283 384 -233 c 6
 384 -128 l 5
 512 -128 l 5
 512 -233 l 6xc4
EndSplineSet
Layer: 2
Layer: 3
Layer: 4
EndChar
StartChar: Rcaron
Encoding: 344 344 291
Width: 1152
VWidth: 0
Flags: H
LayerCount: 5
Back
Fore
SplineSet
256 0 m 1
 128 0 l 1
 128 1280 l 1
 449 1280 l 2
 526 1280 578 1280 633 1267 c 0
 792 1229 912 1092 912 896 c 0
 912 723 818 595 686 542 c 1
 937 0 l 1
 803 0 l 1
 561 514 l 1
 528 512 493 512 449 512 c 2
 256 512 l 1
 256 0 l 1
449 632 m 2
 525 632 565 634 601 642 c 0
 709 666 784 762 784 896 c 0
 784 1030 709 1126 601 1150 c 0
 565 1158 525 1160 449 1160 c 2
 256 1160 l 1
 256 632 l 1
 449 632 l 2
369 1408 m 5
 527 1408 l 5
 824 1664 l 5
 666 1664 l 5
 448 1500.03710938 l 5
 230 1664 l 5
 72 1664 l 5
 369 1408 l 5
EndSplineSet
Layer: 2
Layer: 3
Layer: 4
EndChar
StartChar: Sacute
Encoding: 346 346 292
Width: 1152
VWidth: 0
Flags: H
LayerCount: 5
Back
Fore
SplineSet
570 1176 m 0
 379 1176 280 1080.08984375 280 972 c 0
 280 884.750976562 337.739257812 818.921875 412 787 c 0
 522.40625 739.540039062 664.34765625 768.748046875 792 721 c 0
 923 672 1040 547 1040 375 c 0
 1040 192 897 -16 582 -16 c 0
 465.171875 -16 319.254882812 10.90625 192 39.2939453125 c 1
 192 162.702148438 l 1
 319.401367188 133.064453125 467.776367188 104 582 104 c 0
 814 104 912 240 912 375 c 0
 912 493 834.958984375 574.890625 744 609 c 0
 619.036132812 655.861328125 486.643554688 618.942382812 348 683 c 0
 239.790039062 732.99609375 152 836.612304688 152 972 c 0
 152 1127.31933594 288 1296 570 1296 c 0
 671.189453125 1296 810.776367188 1264.71386719 930 1232.71972656 c 1
 930 1108.33203125 l 1
 810.129882812 1141.83398438 668.7109375 1176 570 1176 c 0
488 1408 m 5
 626 1408 l 5
 792 1664 l 5
 654 1664 l 5
 488 1408 l 5
EndSplineSet
Layer: 2
Layer: 3
Layer: 4
EndChar
StartChar: scedilla
Encoding: 351 351 218
Width: 1024
VWidth: 0
Flags: W
HStem: -400 120<386.23 611.488> -16 120<260.566 720.345> -16 16<640 768> 920 120<413.623 843.839>
VStem: 234 128<687.599 867.607> 640 128<-233.261 -105> 800 128<183.035 441.813>
LayerCount: 5
Back
Fore
SplineSet
567 -16 m 0xde
 474 -16 355 7 256 26 c 1
 256 149 l 1
 351 129 480 104 567 104 c 0
 755 104 800 231 800 313 c 0
 800 397 757 458 700 488 c 0
 614 532 507 510 402 550 c 0
 318 582 234 661 234 776 c 0
 234 904 343 1040 572 1040 c 0
 679 1040 789 1012 886 989 c 1
 886 866 l 1
 788 889 665 920 572 920 c 0
 410 920 362 834 362 776 c 0
 362 719 404 679 450 662 c 0
 543 627 654 651 762 594 c 0
 855 545 928 445 928 313 c 0
 928 147 810 -16 567 -16 c 0xde
768 -105 m 2
 768 -165 767.727539062 -234.798828125 716 -305 c 0
 674 -362 602.005859375 -400 512 -400 c 0
 477.497070312 -400 431.325195312 -392.83984375 384 -382.889648438 c 1
 384 -260.493164062 l 1
 431.853515625 -271.6953125 478.356445312 -280 512 -280 c 0
 559 -280 590.879882812 -262.909179688 612 -235 c 0
 640 -198 640 -155 640 -105 c 2
 640 0 l 1
 768 0 l 1xbe
 768 -105 l 2
EndSplineSet
Layer: 2
Layer: 3
Layer: 4
EndChar
StartChar: Scaron
Encoding: 352 352 294
Width: 1024
VWidth: 0
Flags: HW
HStem: -16 120<252.94 775.362> 1176 120<381.816 843.282>
VStem: 152 128<854.002 1088.13> 912 128<229.087 515.467>
LayerCount: 5
Back
Fore
SplineSet
570 1048 m 0
 379 1048 280 952.08984375 280 844 c 0
 280 756.750976562 337.739257812 690.921875 412 659 c 0
 522.40625 611.540039062 660.002929688 636.9375 792 603 c 4
 920.272460938 570.01953125 1040 471.184570312 1040 311 c 0
 1040 137.954101562 897 -16 582 -16 c 0
 465.171875 -16 319.254882812 10.90625 192 39.2939453125 c 1
 192 162.702148438 l 1
 319.401367188 133.064453125 467.776367188 104 582 104 c 0
 814 104 912 187.881835938 912 311 c 0
 912 416.7265625 832.271484375 472.8984375 744 491 c 4
 613.259765625 517.810546875 486.643554688 490.942382812 348 555 c 0
 239.790039062 604.99609375 152 708.612304688 152 844 c 0
 152 999.319335938 288 1168 570 1168 c 0
 671.189453125 1168 810.776367188 1136.71386719 930 1104.71972656 c 1
 930 980.33203125 l 1
 810.129882812 1013.83398438 668.7109375 1048 570 1048 c 0
497 1280 m 1
 655 1280 l 1
 952 1536 l 1
 794 1536 l 1
 576 1372.03710938 l 1
 358 1536 l 1
 200 1536 l 1
 497 1280 l 1
EndSplineSet
Layer: 2
Layer: 3
Layer: 4
EndChar
StartChar: scaron
Encoding: 353 353 255
Width: 1152
VWidth: 0
Flags: H
LayerCount: 5
Back
Fore
SplineSet
567 -16 m 0
 474 -16 355 7 256 26 c 1
 256 149 l 1
 351 129 480 104 567 104 c 0
 755 104 800 231 800 313 c 0
 800 397 757 458 700 488 c 0
 614 532 507 510 402 550 c 0
 318 582 234 661 234 776 c 0
 234 904 343 1040 572 1040 c 0
 679 1040 789 1012 886 989 c 1
 886 866 l 1
 788 889 665 920 572 920 c 0
 410 920 362 834 362 776 c 0
 362 719 404 679 450 662 c 0
 543 627 654 651 762 594 c 0
 855 545 928 445 928 313 c 0
 928 147 810 -16 567 -16 c 0
493 1162 m 5
 651 1162 l 5
 948 1418 l 5
 790 1418 l 5
 572 1254.03710938 l 5
 354 1418 l 5
 196 1418 l 5
 493 1162 l 5
EndSplineSet
Layer: 2
Layer: 3
Layer: 4
EndChar
StartChar: tcaron
Encoding: 357 357 296
Width: 1152
VWidth: 0
Flags: HW
LayerCount: 5
Back
Fore
SplineSet
896 18.72265625 m 1
 835.625 -1.0419921875 768.551757812 -16 694 -16 c 0
 588 -16 504 29 452 92 c 0
 384.188476562 174.15625 384 270.530273438 384 360 c 2
 384 898 l 1
 128 898 l 1
 128 1024 l 1
 384 1024 l 1
 384 1280 l 1
 512 1280 l 1
 512 1024 l 1
 896 1024 l 1
 896 898 l 1
 512 898 l 1
 512 370 l 2
 512 284.29296875 512 218 555 166 c 0
 586.658203125 127.71484375 637 104 704 104 c 0
 771.977539062 104 840.822265625 124.811523438 896 147.0546875 c 1
 896 18.72265625 l 1
631 1280 m 5
 759 1280 l 1
 759 640 l 5
 631 640 l 5
 631 1280 l 5
EndSplineSet
Layer: 2
Layer: 3
Layer: 4
EndChar
StartChar: utilde
Encoding: 361 361 222
Width: 1152
VWidth: 0
Flags: H
LayerCount: 5
Back
Fore
SplineSet
556 -16 m 0xb8
 456 -16 375 29 325 91 c 0
 256 177 256 273 256 367 c 2
 256 1024 l 1
 384 1024 l 1
 384 367 l 2
 384 280 384 218 429 166 c 0
 461 129 512 104 576 104 c 128xb8
 640 104 691 129 723 166 c 0
 768 218 768 280 768 367 c 2
 768 1024 l 1
 896 1024 l 1
 896 0 l 1
 768 0 l 1x78
 768 112 l 1
 758 112 l 1
 709 35 632 -16 556 -16 c 0xb8
448 1284 m 0
 397 1284 384 1225 381 1171 c 1
 253 1177 l 1
 257 1295 319 1404 448 1404 c 0
 594 1404 627 1276 704 1276 c 0
 755 1276 768 1335 771 1389 c 1
 899 1383 l 1
 896 1267 833 1156 704 1156 c 0
 558 1156 525 1284 448 1284 c 0
EndSplineSet
Layer: 2
Layer: 3
Layer: 4
EndChar
StartChar: umacron
Encoding: 363 363 224
Width: 1152
VWidth: 0
Flags: H
LayerCount: 5
Back
Fore
SplineSet
556 -16 m 0xb8
 456 -16 375 29 325 91 c 0
 256 177 256 273 256 367 c 2
 256 1024 l 1
 384 1024 l 1
 384 367 l 2
 384 280 384 218 429 166 c 0
 461 129 512 104 576 104 c 128xb8
 640 104 691 129 723 166 c 0
 768 218 768 280 768 367 c 2
 768 1024 l 1
 896 1024 l 1
 896 0 l 1
 768 0 l 1x78
 768 112 l 1
 758 112 l 1
 709 35 632 -16 556 -16 c 0xb8
256 1276 m 5
 896 1276 l 5
 896 1156 l 5
 256 1156 l 5
 256 1276 l 5
EndSplineSet
Layer: 2
Layer: 3
Layer: 4
EndChar
StartChar: Ubreve
Encoding: 364 364 225
Width: 1152
VWidth: 0
Flags: H
LayerCount: 5
Back
Fore
SplineSet
128 1280 m 1
 256 1280 l 1
 256 512 l 2
 256 437 256 378 268 330 c 0
 301.4140625 196.345703125 416 104 576 104 c 0
 736 104 850.5859375 196.345703125 884 330 c 0
 896 378 896 437 896 512 c 2
 896 1280 l 1
 1024 1280 l 1
 1024 512 l 2
 1024 426 1024.1328125 371.350585938 1008 303 c 0
 964.392578125 118.24609375 797 -16 576 -16 c 0
 355 -16 187.248046875 118.162109375 144 303 c 0
 128 371.381835938 128 426 128 512 c 2
 128 1280 l 1
788 1664 m 5
 916 1664 l 5
 916 1495.94628906 764.259765625 1392 576 1392 c 4
 387.739257812 1392 236 1495.94433594 236 1664 c 5
 364 1664 l 5
 364 1577.65527344 433.061523438 1512 576 1512 c 4
 718.939453125 1512 788 1577.65332031 788 1664 c 5
EndSplineSet
Layer: 2
Layer: 3
Layer: 4
EndChar
StartChar: Uring
Encoding: 366 366 219
Width: 1152
VWidth: 0
Flags: H
LayerCount: 5
Back
Fore
SplineSet
128 1280 m 1
 256 1280 l 1
 256 512 l 2
 256 437 256 378 268 330 c 0
 301.4140625 196.345703125 416 104 576 104 c 0
 736 104 850.5859375 196.345703125 884 330 c 0
 896 378 896 437 896 512 c 2
 896 1280 l 1
 1024 1280 l 1
 1024 512 l 2
 1024 426 1024.1328125 371.350585938 1008 303 c 0
 964.392578125 118.24609375 797 -16 576 -16 c 0
 355 -16 187.248046875 118.162109375 144 303 c 0
 128 371.381835938 128 426 128 512 c 2
 128 1280 l 1
576 1580 m 0
 518.13671875 1580 476 1546.05664062 476 1472 c 0
 476 1397.96484375 518.0625 1364 576 1364 c 4
 633.865234375 1364 676 1397.94140625 676 1472 c 0
 676 1546.03515625 633.9375 1580 576 1580 c 0
576 1680 m 0
 699.30078125 1680 784 1586.32519531 784 1472 c 0
 784 1357.69140625 699.358398438 1264 576 1264 c 0
 452.69921875 1264 368 1357.67382812 368 1472 c 0
 368 1586.30761719 452.640625 1680 576 1680 c 0
EndSplineSet
Layer: 2
Layer: 3
Layer: 4
EndChar
StartChar: uring
Encoding: 367 367 220
Width: 1152
VWidth: 0
Flags: H
LayerCount: 5
Back
Fore
SplineSet
556 -16 m 0xb8
 456 -16 375 29 325 91 c 0
 256 177 256 273 256 367 c 2
 256 1024 l 1
 384 1024 l 1
 384 367 l 2
 384 280 384 218 429 166 c 0
 461 129 512 104 576 104 c 128xb8
 640 104 691 129 723 166 c 0
 768 218 768 280 768 367 c 2
 768 1024 l 1
 896 1024 l 1
 896 0 l 1
 768 0 l 1x78
 768 112 l 1
 758 112 l 1
 709 35 632 -16 556 -16 c 0xb8
576 1324 m 0
 518.13671875 1324 476 1290.05664062 476 1216 c 0
 476 1141.96484375 518.0625 1108 576 1108 c 4
 633.865234375 1108 676 1141.94140625 676 1216 c 0
 676 1290.03515625 633.9375 1324 576 1324 c 0
576 1424 m 0
 699.30078125 1424 784 1330.32519531 784 1216 c 0
 784 1101.69140625 699.358398438 1008 576 1008 c 0
 452.69921875 1008 368 1101.67382812 368 1216 c 0
 368 1330.30761719 452.640625 1424 576 1424 c 0
EndSplineSet
Layer: 2
Layer: 3
Layer: 4
EndChar
StartChar: Uhungarumlaut
Encoding: 368 368 233
Width: 1152
VWidth: 0
Flags: H
LayerCount: 5
Back
Fore
SplineSet
128 1280 m 1
 256 1280 l 1
 256 512 l 2
 256 437 256 378 268 330 c 0
 301.4140625 196.345703125 416 104 576 104 c 0
 736 104 850.5859375 196.345703125 884 330 c 0
 896 378 896 437 896 512 c 2
 896 1280 l 1
 1024 1280 l 1
 1024 512 l 2
 1024 426 1024.1328125 371.350585938 1008 303 c 0
 964.392578125 118.24609375 797 -16 576 -16 c 0
 355 -16 187.248046875 118.162109375 144 303 c 0
 128 371.381835938 128 426 128 512 c 2
 128 1280 l 1
616 1408 m 5xa0
 754 1408 l 5
 920 1664 l 5
 782 1664 l 5
 616 1408 l 5xa0
360 1408 m 5xc0
 498 1408 l 5
 664 1664 l 5
 526 1664 l 5
 360 1408 l 5xc0
EndSplineSet
Layer: 2
Layer: 3
Layer: 4
EndChar
StartChar: uogonek
Encoding: 371 371 267
Width: 1152
VWidth: 0
Flags: H
LayerCount: 5
Back
Fore
SplineSet
556 -16 m 0xb8
 456 -16 375 29 325 91 c 0
 256 177 256 273 256 367 c 2
 256 1024 l 1
 384 1024 l 1
 384 367 l 2
 384 280 384 218 429 166 c 0
 461 129 512 104 576 104 c 128xb8
 640 104 691 129 723 166 c 0
 768 218 768 280 768 367 c 2
 768 1024 l 1
 896 1024 l 1
 896 0 l 1
 768 0 l 1x78
 768 112 l 1
 758 112 l 1
 709 35 632 -16 556 -16 c 0xb8
767 -280 m 0
 813 -280 857 -270 896 -260 c 1
 896 -383 l 1
 856 -391 813 -400 767 -400 c 0
 653 -400 512 -325 512 -205 c 0
 512 -57 706.760742188 -63 768 0 c 5
 896 0 l 1
 854.838867188 -91 640 -103 640 -198 c 0
 640 -258 710 -280 767 -280 c 0
EndSplineSet
Layer: 2
Layer: 3
Layer: 4
EndChar
StartChar: Wcircumflex
Encoding: 372 372 237
Width: 1152
VWidth: 0
Flags: H
LayerCount: 5
Back
Fore
SplineSet
514 896 m 1
 638 896 l 1
 812 210 l 1
 822 210 l 1
 887 539.938476562 905 907.997070312 905 1280 c 1
 1036 1280 l 1
 1036 851.08203125 988.377929688 424.665039062 895 2 c 1
 770 0 l 1
 581 736 l 1
 571 736 l 1
 382 0 l 1
 257 2 l 1
 163.622070312 424.665039062 116 851.08203125 116 1280 c 1
 247 1280 l 1
 247 907.997070312 266.370117188 539.938476562 330 210 c 1
 340 210 l 1
 514 896 l 1
497 1664 m 5
 655 1664 l 5
 952 1408 l 5
 794 1408 l 5
 576 1571.96289062 l 5
 358 1408 l 5
 200 1408 l 5
 497 1664 l 5
EndSplineSet
Layer: 2
Layer: 3
Layer: 4
EndChar
StartChar: Ycircumflex
Encoding: 374 374 234
Width: 1024
VWidth: 0
Flags: HW
HStem: 0 21G<512 640> 1260 20G<103 261.17 890.83 1049> 1408 21G<200 384.591 767.409 952>
VStem: 103 135<1077.14 1280> 512 128<0 488.354> 914 135<1077.14 1280>
CounterMasks: 1 1c
LayerCount: 5
Back
Fore
SplineSet
113 1152 m 5
 238 1152 l 5
 302.618164062 939.180664062 397.975585938 758.170898438 561 612 c 5
 591 612 l 5
 754.024414062 758.170898438 849.381835938 939.180664062 914 1152 c 5
 1039 1152 l 5
 977.540039062 922.772460938 868.034179688 713.750976562 640 512 c 5
 640 0 l 5
 512 0 l 5
 512 512 l 5
 283.965820312 713.750976562 174.459960938 922.772460938 113 1152 c 5
497 1536 m 1
 655 1536 l 1
 952 1280 l 1
 794 1280 l 1
 576 1443.96289062 l 1
 358 1280 l 1
 200 1280 l 1
 497 1536 l 1
EndSplineSet
Layer: 2
Layer: 3
Layer: 4
EndChar
StartChar: ycircumflex
Encoding: 375 375 235
Width: 1024
VWidth: 0
Flags: HW
HStem: -528 120<256 392.5> 1004 20G<201 353 803 951> 1388 20G<473.797 678.203>
VStem: 201 135<727.078 1024> 816 135<712.23 1024>
LayerCount: 5
Back
Fore
SplineSet
497 0 m 1
 317 328 241 663 201 1024 c 1
 336 1024 l 1
 379 651 458 332 592 78 c 1
 602 78 l 1
 701 406 767 720 816 1024 c 1
 951 1024 l 1
 865.55078125 580 771.501953125 142.387695312 616 -273 c 4
 595.620117188 -327.438476562 546.873046875 -371.413085938 474 -385 c 0
 415 -396 341 -400 256 -400 c 1
 256 -286 l 1
 339 -286 399.055664062 -285.301757812 438 -278 c 0
 470 -272 490.033203125 -247.014648438 505 -214 c 0
 539 -139 560 -79 585 0 c 1
 497 0 l 1
497 1418 m 1
 655 1418 l 1
 952 1162 l 1
 794 1162 l 1
 576 1325.96289062 l 1
 358 1162 l 1
 200 1162 l 1
 497 1418 l 1
EndSplineSet
Layer: 2
Layer: 3
Layer: 4
EndChar
StartChar: Zacute
Encoding: 377 377 239
Width: 1024
VWidth: 0
Flags: HW
HStem: 0 120<293 1024> 1160 120<148 838.92>
LayerCount: 5
Back
Fore
SplineSet
148 1032 m 1
 148 1152 l 1
 1004 1152 l 1
 1004 1062 l 1
 283.080078125 130 l 1
 283 120 l 1
 1024 120 l 1
 1024 0 l 1
 128 0 l 1
 128 92 l 1
 849 1022 l 5
 848.919921875 1032 l 5
 148 1032 l 1
488 1280 m 5
 626 1280 l 5
 792 1536 l 5
 654 1536 l 5
 488 1280 l 5
EndSplineSet
Layer: 2
Layer: 3
Layer: 4
EndChar
StartChar: Zdotaccent
Encoding: 379 379 241
Width: 1152
VWidth: 0
Flags: H
LayerCount: 5
Back
Fore
SplineSet
148 1160 m 1
 148 1280 l 1
 1004 1280 l 1
 1004 1190 l 1
 293.080078125 130 l 1
 293 120 l 1
 1024 120 l 1
 1024 0 l 1
 128 0 l 1
 128 92 l 1
 839 1150 l 1
 838.919921875 1160 l 1
 148 1160 l 1
576 1680 m 4
 642 1680 688 1634 688 1568 c 4
 688 1502 642 1456 576 1456 c 4
 510 1456 464 1502 464 1568 c 4
 464 1634 510 1680 576 1680 c 4
EndSplineSet
Layer: 2
Layer: 3
Layer: 4
EndChar
StartChar: Zcaron
Encoding: 381 381 243
Width: 1152
VWidth: 0
Flags: H
LayerCount: 5
Back
Fore
SplineSet
148 1160 m 1
 148 1280 l 1
 1004 1280 l 1
 1004 1190 l 1
 293.080078125 130 l 1
 293 120 l 1
 1024 120 l 1
 1024 0 l 1
 128 0 l 1
 128 92 l 1
 839 1150 l 1
 838.919921875 1160 l 1
 148 1160 l 1
497 1408 m 5
 655 1408 l 5
 952 1664 l 5
 794 1664 l 5
 576 1500.03710938 l 5
 358 1664 l 5
 200 1664 l 5
 497 1408 l 5
EndSplineSet
Layer: 2
Layer: 3
Layer: 4
EndChar
StartChar: zcaron
Encoding: 382 382 244
Width: 1152
VWidth: 0
Flags: H
LayerCount: 5
Back
Fore
SplineSet
276 904 m 1
 276 1024 l 1
 876 1024 l 1
 876 934 l 1
 401.080078125 130 l 1
 401 120 l 1
 896 120 l 1
 896 0 l 1
 256 0 l 1
 256 92 l 1
 731 894 l 1
 730.919921875 904 l 1
 276 904 l 1
497 1152 m 5
 655 1152 l 5
 952 1408 l 5
 794 1408 l 5
 576 1244.03710938 l 5
 358 1408 l 5
 200 1408 l 5
 497 1152 l 5
EndSplineSet
Layer: 2
Layer: 3
Layer: 4
EndChar
StartChar: uni01EA
Encoding: 490 490 297
Width: 1024
VWidth: 0
Flags: W
HStem: -402.667 120<485.912 728.146> -16 120<408.626 576> 1176 120<408.149 743.851>
VStem: 112 128<298.492 981.508> 346 128<-265.383 -128.454> 912 128<295.222 981.508>
LayerCount: 5
Back
Fore
SplineSet
601 -282.666992188 m 0
 647 -282.666992188 691 -272.666992188 730 -262.666992188 c 1
 730 -385.666992188 l 1
 690 -393.666992188 647 -402.666992188 601 -402.666992188 c 0
 487 -402.666992188 346 -327.666992188 346 -207.666992188 c 0
 346 -101.521174543 576 -36 576 -16 c 1
 344 -16 193 127 142 318 c 0
 113 427 112 536.322265625 112 640 c 0
 112 743.677734375 113 853 142 962 c 0
 193 1153 344 1296 576 1296 c 0
 808 1296 959 1153 1010 962 c 0
 1039 853 1040 743.677734375 1040 640 c 0
 1040 536.322265625 1039 427 1010 318 c 0
 975.004200005 186.937298059 892.922432411 78.4758605656 770 23.3330078125 c 0
 631.678355524 -38.7179126286 474 -93.1922447128 474 -200.666992188 c 0
 474 -260.666992188 544 -282.666992188 601 -282.666992188 c 0
240 640 m 0
 240 537.3515625 242 438 266 348 c 0
 304 206 406 104 576 104 c 0
 746 104 848 206 886 348 c 0
 910 438 912 537.3515625 912 640 c 0
 912 742.6484375 910 842 886 932 c 0
 848 1074 746 1176 576 1176 c 0
 406 1176 304 1074 266 932 c 0
 242 842 240 742.6484375 240 640 c 0
EndSplineSet
Layer: 2
Layer: 3
Layer: 4
EndChar
StartChar: uni0202
Encoding: 514 514 303
Width: 1024
VWidth: 0
Flags: HW
HStem: 0 21G<103 243.014 908.986 1049> 388 120<304.014 847.986> 1161 119<547.907 604.093> 1408 21G<236 364 788 916> 1560 120<418.7 733.3>
VStem: 236 128<1408 1508.45> 788 128<1408 1508.45>
LayerCount: 5
Back
Fore
SplineSet
821 508 m 1
 767.337890625 708.025390625 688.83984375 886.815429688 581 1043 c 5
 571 1043 l 5
 462.7109375 886.815429688 383.884765625 708.025390625 330 508 c 1
 821 508 l 1
103 0 m 1
 156.467773438 405.818359375 267.232421875 794.454101562 511 1152 c 1
 641 1152 l 1
 884.888671875 794.454101562 995.653320312 405.818359375 1049 0 c 1
 914 0 l 1
 901.400390625 136 883.875 265 851 388 c 1
 301 388 l 1
 268.125 265 250.599609375 136 238 0 c 1
 103 0 l 1
788 1280 m 5
 788 1366.34667969 718.939453125 1432 576 1432 c 4
 433.061523438 1432 364 1366.34472656 364 1280 c 5
 236 1280 l 5
 236 1448.05566406 387.739257812 1552 576 1552 c 4
 764.259765625 1552 916 1448.05371094 916 1280 c 5
 788 1280 l 5
EndSplineSet
Layer: 2
Layer: 3
Layer: 4
EndChar
StartChar: uni0204
Encoding: 516 516 305
Width: 1024
VWidth: 0
Flags: HW
HStem: 0 120<384 1024> 644 120<384 896> 1160 120<384 1024> 1408 21G<385.031 536 641.031 792>
VStem: 256 128<120 644 764 1160>
LayerCount: 5
Back
Fore
SplineSet
256 1152 m 5
 1024 1152 l 5
 1024 1032 l 5
 384 1032 l 5
 384 636 l 5
 896 636 l 5
 896 516 l 5
 384 516 l 5
 384 120 l 1
 1024 120 l 1
 1024 0 l 1
 256 0 l 1
 256 1152 l 5
536 1280 m 5xc0
 398 1280 l 5
 232 1536 l 5
 370 1536 l 5
 536 1280 l 5xc0
792 1280 m 5xa0
 654 1280 l 5
 488 1536 l 5
 626 1536 l 5
 792 1280 l 5xa0
EndSplineSet
Layer: 2
Layer: 3
Layer: 4
EndChar
StartChar: uni0209
Encoding: 521 521 310
Width: 1024
VWidth: 0
Flags: HW
HStem: 0 120<256 512 640 896> 904 120<256 512> 1388 20G<232 382.969 488 638.969>
VStem: 512 128<120 904>
LayerCount: 5
Back
Fore
SplineSet
256 0 m 1
 256 120 l 1
 512 120 l 1
 512 904 l 1
 256 904 l 1
 256 1024 l 1
 640 1024 l 1
 640 120 l 1
 896 120 l 1
 896 0 l 1
 256 0 l 1
536 1152 m 5xc0
 398 1152 l 5
 232 1408 l 5
 370 1408 l 5
 536 1152 l 5xc0
792 1152 m 5xa0
 654 1152 l 5
 488 1408 l 5
 626 1408 l 5
 792 1152 l 5xa0
EndSplineSet
Layer: 2
Layer: 3
Layer: 4
EndChar
StartChar: uni020A
Encoding: 522 522 311
Width: 1024
VWidth: 0
Flags: HW
HStem: 0 120<256 512 640 896> 1160 120<256 512 640 896> 1408 21G<236 364 788 916> 1560 120<418.7 733.3>
VStem: 236 128<1408 1508.45> 512 128<120 1160> 788 128<1408 1508.45>
CounterMasks: 1 0e
LayerCount: 5
Back
Fore
SplineSet
896 1152 m 5
 896 1032 l 5
 640 1032 l 5
 640 120 l 1
 896 120 l 1
 896 0 l 1
 256 0 l 1
 256 120 l 1
 512 120 l 1
 512 1032 l 5
 256 1032 l 5
 256 1152 l 5
 896 1152 l 5
788 1280 m 5
 788 1366.34667969 718.939453125 1432 576 1432 c 4
 433.061523438 1432 364 1366.34472656 364 1280 c 5
 236 1280 l 5
 236 1448.05566406 387.739257812 1552 576 1552 c 4
 764.259765625 1552 916 1448.05371094 916 1280 c 5
 788 1280 l 5
EndSplineSet
Layer: 2
Layer: 3
Layer: 4
EndChar
StartChar: uni020B
Encoding: 523 523 312
Width: 1024
VWidth: 0
Flags: HW
HStem: 0 120<256 512 640 896> 904 120<256 512> 1304 120<418.7 733.3>
VStem: 236 128<1152 1252.45> 512 128<120 904> 788 128<1152 1252.45>
CounterMasks: 1 1c
LayerCount: 5
Back
Fore
SplineSet
256 0 m 1
 256 120 l 1
 512 120 l 1
 512 904 l 1
 256 904 l 1
 256 1024 l 1
 640 1024 l 1
 640 120 l 1
 896 120 l 1
 896 0 l 1
 256 0 l 1
788 1152 m 5
 788 1238.34667969 718.939453125 1304 576 1304 c 4
 433.061523438 1304 364 1238.34472656 364 1152 c 5
 236 1152 l 5
 236 1320.05566406 387.739257812 1424 576 1424 c 4
 764.259765625 1424 916 1320.05371094 916 1152 c 5
 788 1152 l 5
EndSplineSet
Layer: 2
Layer: 3
Layer: 4
EndChar
StartChar: uni0211
Encoding: 529 529 318
Width: 1024
VWidth: 0
Flags: HW
HStem: 0 21G<256 384> 920 120<504.976 892.252> 1004 20G<256 384> 1388 20G<232 382.969 488 638.969>
VStem: 256 128<0 782.495 876 1024>
LayerCount: 5
Back
Fore
SplineSet
256 1024 m 1xb0
 384 1024 l 1xb0
 384 876 l 1
 394 876 l 1
 460 982 537 1040 665 1040 c 0
 737.095703125 1040 818.080078125 1033.97949219 896 1025.94726562 c 1
 896 902.916015625 l 1
 814.1015625 912.82421875 729.64453125 920 665 920 c 0xd0
 589 920 535.232421875 902.721679688 491 866 c 0
 385 778 384 612 384 535 c 2
 384 0 l 1
 256 0 l 1
 256 1024 l 1xb0
536 1152 m 5xc0
 398 1152 l 5
 232 1408 l 5
 370 1408 l 5
 536 1152 l 5xc0
792 1152 m 5xa0
 654 1152 l 5
 488 1408 l 5
 626 1408 l 5
 792 1152 l 5xa0
EndSplineSet
Layer: 2
Layer: 3
Layer: 4
EndChar
StartChar: uni0237
Encoding: 567 567 248
Width: 1024
VWidth: 0
Flags: W
HStem: -528 120<258.716 579.345> 898 126<384 640>
VStem: 640 128<-347.784 898>
AnchorPoint: "top" 576 1024 basechar 0
LayerCount: 5
Back
Fore
SplineSet
256 -364.945645653 m 5
 311.177380797 -387.188711056 380.022258918 -408 448 -408 c 4
 515 -408 565.341363374 -384.284862896 597 -346 c 4
 640 -294 640 -230 640 -142 c 6
 640 898 l 5
 384 898 l 5
 384 1024 l 5
 768 1024 l 5
 768 -152 l 6
 768 -243 767.811358478 -337.843931074 700 -420 c 4
 648 -483 564 -528 458 -528 c 4
 383.447909072 -528 316.374883856 -513.041868577 256 -493.2776223 c 5
 256 -364.945645653 l 5
EndSplineSet
Layer: 2
Layer: 3
Layer: 4
EndChar
StartChar: uni030A
Encoding: 778 778 155
Width: 1024
VWidth: 0
Flags: W
HStem: 1068 100<481.917 670.083> 1424 100<481.917 670.083>
VStem: 348 108<1191.59 1400.41> 696 108<1191.59 1400.41>
AnchorPoint: "top" 576 1152 mark 0
LayerCount: 5
Back
SplineSet
576 1474 m 4
 678.496875 1474 750 1401.02695313 750 1296 c 4
 750 1190.97304687 678.496875 1118 576 1118 c 4
 473.503125 1118 402 1190.97304687 402 1296 c 4
 402 1401.02695313 473.503125 1474 576 1474 c 4
EndSplineSet
Fore
SplineSet
576 1424 m 0
 506.313476562 1424 456 1378.86425781 456 1296 c 0
 456 1213.13671875 506.311523438 1168 576 1168 c 0
 645.686523438 1168 696 1213.13671875 696 1296 c 0
 696 1378.86328125 645.6875 1424 576 1424 c 0
576 1524 m 0
 711.306640625 1524 804 1423.19140625 804 1296 c 0
 804 1168.80957031 711.307617188 1068 576 1068 c 0
 440.694335938 1068 348 1168.80957031 348 1296 c 0
 348 1423.19042969 440.692382812 1524 576 1524 c 0
EndSplineSet
Layer: 2
SplineSet
576 1494 m 4
 488.5078125 1494 426 1436.42773438 426 1336 c 4
 426 1235.57714844 488.493164062 1178 576 1178 c 4
 663.4921875 1178 726 1235.57324219 726 1336 c 4
 726 1436.42382812 663.5078125 1494 576 1494 c 4
576 1594 m 4
 728.830078125 1594 834 1481.03320312 834 1336 c 4
 834 1190.97070312 728.845703125 1078 576 1078 c 4
 423.168945312 1078 318 1190.96679688 318 1336 c 4
 318 1481.02929688 423.154296875 1594 576 1594 c 4
EndSplineSet
Layer: 3
Layer: 4
EndChar
StartChar: uni0326
Encoding: 806 806 273
Width: 1152
VWidth: 0
Flags: HW
HStem: -528 120<384 483.002>
VStem: 512 128<-361.261 -128>
AnchorPoint: "bottom" 576 0 mark 0
LayerCount: 5
Back
Fore
SplineSet
640 -233 m 6
 640 -293 639.72730588 -362.798656306 588 -433 c 4
 546 -490 474.005859375 -528 384 -528 c 4
 384 -408 l 4
 431 -408 462.879664639 -390.909014584 484 -363 c 4
 512 -326 512 -283 512 -233 c 6
 512 -128 l 5
 640 -128 l 5
 640 -233 l 6
EndSplineSet
Layer: 2
Layer: 3
Layer: 4
EndChar
StartChar: uni0327
Encoding: 807 807 172
Width: 1024
VWidth: 0
Flags: W
HStem: -400 120<258.23 483.488> -20 20G<512 640>
VStem: 512 128<-233.261 0>
AnchorPoint: "bottom" 576 0 mark 0
LayerCount: 5
Back
Fore
SplineSet
640 -105 m 6
 640 -165 639.72730588 -234.798656306 588 -305 c 4
 546 -362 474.005859375 -400 384 -400 c 4
 349.496750412 -400 303.324784805 -392.839651533 256 -382.889197435 c 5
 256 -260.49285078 l 5
 303.853230632 -271.694958014 350.356325241 -280 384 -280 c 4
 431 -280 462.879664639 -262.909014584 484 -235 c 4
 512 -198 512 -155 512 -105 c 6
 512 0 l 5
 640 0 l 5
 640 -105 l 6
EndSplineSet
Layer: 2
Layer: 3
Layer: 4
EndChar
StartChar: uni0328
Encoding: 808 808 171
Width: 1152
VWidth: 0
Flags: HW
HStem: -400 120<395.912 638.146> -20 20G<480.5 639>
VStem: 256 128<-262.716 -135.229>
AnchorPoint: "bottom" 576 0 mark 0
LayerCount: 5
Back
SplineSet
256 -383 m 0
 275.577826189 -387.126706798 295.225210163 -390.953908373 315 -394 c 0
 337.839411345 -397.51816329 360.891289606 -399.939275313 384 -400 c 0
 384.266556669 -400.000700453 384.533120024 -400.001050633 384.799689052 -400.001050633 c 0
 449.739746188 -400.001050633 515.016516506 -379.218571738 566 -339 c 0
 586.208345662 -323.058547121 604.162554756 -304.022339518 617.4482266 -281.976975426 c 0
 631.410043449 -258.809661084 640.068602979 -233.232995941 640.068602979 -204.876783325 c 0
 640.068602979 -171.352779019 626.511521367 -138.062634191 603.18793502 -113.950467728 c 0
 578.908266851 -88.8498939222 545.588364931 -74.5583907126 512 -65 c 0
 488.560075326 -58.3295961633 464.555364346 -53.2773803738 442.03721763 -43.9576473009 c 0
 419.519070915 -34.637914228 398.415667933 -20.3456189379 385 0 c 0
 375.303861543 14.7047421873 369.992136945 32.2896458533 369.992136945 49.873677315 c 0
 369.992136945 54.2641210628 370.323279869 58.6545104358 371 63 c 1
 146 28 l 2
 165.283309428 32.0301366447 185.498822785 31.4123677007 204.546035544 26.3832813028 c 0
 223.593248302 21.354194905 241.318862793 11.9243431585 257 0 c 0
 278.846500292 -16.6126450436 296.706177252 -37.7928325191 316.419980089 -56.8877409519 c 0
 336.133782927 -75.9826493847 358.685501421 -92.3969008275 384 -103 c 0
 410.446480947 -114.077235418 439.341150058 -118.882602124 465.044354558 -131.589559957 c 0
 477.895956808 -137.943038874 489.84409365 -146.567439186 498.494053949 -158.000223691 c 0
 507.144014249 -169.433008197 512.205546862 -183.665142999 512 -198 c 0
 511.810396058 -211.222996301 507.198696985 -224.240707715 499.578822659 -235.049088541 c 0
 491.958948333 -245.857469366 481.51563617 -254.498176838 470 -261 c 0
 444.464194859 -275.4177262 414.412658944 -280.002023719 385.069984868 -280.002023719 c 0
 384.71321532 -280.002023719 384.356550567 -280.001346001 384 -280 c 0
 361.185361759 -279.913873318 338.46007955 -277.007488301 316 -273 c 0
 295.850524418 -269.404786212 275.867456626 -264.920477175 256 -260 c 0
 238.574742459 -255.684370495 221.239849181 -251.005183174 204 -246 c 1
 207 -372 l 1
 223.287414312 -375.86744243 239.619656383 -379.547273701 256 -383 c 0
  Spiro
    256 -383 o
    315 -394 o
    384 -400 o
    566 -339 o
    640 -209 o
    512 -65 o
    385 0 o
    371 63 v
    146 28 v
    257 0 o
    384 -103 o
    512 -198 o
    470 -261 o
    384 -280 o
    316 -273 o
    256 -260 o
    204 -246 v
    207 -372 v
    0 0 z
  EndSpiro
EndSplineSet
Fore
SplineSet
511 -280 m 0
 557 -280 601 -270 640 -260 c 1
 640 -383 l 1
 600 -391 557 -400 511 -400 c 0
 397 -400 256 -325 256 -205 c 0
 256 -57 450.760784314 -63 512 0 c 5
 640 0 l 1
 598.839215686 -91 384 -103 384 -198 c 0
 384 -258 454 -280 511 -280 c 0
EndSplineSet
Layer: 2
Layer: 3
Layer: 4
EndChar
StartChar: uni0401
Encoding: 1025 1025 331
Width: 1024
VWidth: 0
Flags: H
LayerCount: 5
Back
Fore
SplineSet
256 1152 m 5
 1024 1152 l 5
 1024 1032 l 5
 384 1032 l 5
 384 636 l 5
 896 636 l 5
 896 516 l 5
 384 516 l 5
 384 120 l 5
 1024 120 l 5
 1024 0 l 5
 256 0 l 5
 256 1152 l 5
800 1552 m 4
 866 1552 912 1506 912 1440 c 4
 912 1374 866 1328 800 1328 c 4
 734 1328 688 1374 688 1440 c 4
 688 1506 734 1552 800 1552 c 4
352 1552 m 4
 418 1552 464 1506 464 1440 c 4
 464 1374 418 1328 352 1328 c 4
 286 1328 240 1374 240 1440 c 4
 240 1506 286 1552 352 1552 c 4
EndSplineSet
Layer: 2
Layer: 3
Layer: 4
EndChar
StartChar: uni2713
Encoding: 10003 10003 100
Width: 1152
VWidth: 0
Flags: W
HStem: -0 21G<336.697 622.953> 1004 20G<754.481 905.455>
VStem: 104.121 131.835<278.442 384> 776.365 129.09<770.068 1024>
LayerCount: 5
Back
SplineSet
860 1152 m 5
 819.13975737 733.772212096 728.105787404 341.231419735 447 46 c 5
 294.888755857 131.275753831 174.516253411 250.880246377 148 472 c 1029
EndSplineSet
Fore
SplineSet
776.364921445 1024 m 5
 905.455093872 1024 l 5
 858.086361168 644.11385783 756.905020133 282.303420173 489 0 c 5
 405 -0 l 5
 268.393436482 79.2960341576 149.307565702 194.30090875 104.120649385 384 c 5
 235.955215356 384 l 5
 270.93845613 257.702472655 343.582908199 178.534986702 437 115 c 5
 645.105332161 361.552813318 732.596266647 676.570051914 776.364921445 1024 c 5
EndSplineSet
Layer: 2
SplineSet
84.400390625 465.296875 m 5
 211.599609375 478.703125 l 5
 233.096679688 299.434570312 317.2265625 200.848632812 434.55078125 124.75390625 c 5
 673.2265625 399.698242188 757.58984375 761.59765625 796.266601562 1157.47265625 c 5
 923.733398438 1146.52734375 l 5
 882.526367188 724.755859375 790.625976562 316.793945312 494.745117188 6.0439453125 c 5
 414.153320312 -5.4951171875 l 5
 251.287109375 85.810546875 113.3828125 223.619140625 84.400390625 465.296875 c 5
EndSplineSet
Layer: 3
Layer: 4
EndChar
